<?xml version="1.0" encoding="UTF-8" standalone="no"?>
<!-- Generator: Adobe Illustrator 15.1.0, SVG Export Plug-In . SVG Version: 6.00 Build 0)  -->

<svg
   xmlns:xhtml="http://www.w3.org/1999/xhtml"
   xmlns:dc="http://purl.org/dc/elements/1.1/"
   xmlns:cc="http://creativecommons.org/ns#"
   xmlns:rdf="http://www.w3.org/1999/02/22-rdf-syntax-ns#"
   xmlns:svg="http://www.w3.org/2000/svg"
   xmlns="http://www.w3.org/2000/svg"
   xmlns:xlink="http://www.w3.org/1999/xlink"
   xmlns:sodipodi="http://sodipodi.sourceforge.net/DTD/sodipodi-0.dtd"
   xmlns:inkscape="http://www.inkscape.org/namespaces/inkscape"
   version="1.1"
   id="Layer_1"
   x="0px"
   y="0px"
   width="401.29019"
   height="203.80063"
   viewBox="0 0 401.29019 203.80063"
   xml:space="preserve"
   inkscape:version="0.91pre3 r13670"
   sodipodi:docname="GDG_Warsaw_banner.svg"
   inkscape:export-filename="C:\Users\roman.frolow\projects\golang-warsaw\GDG_Warsaw_banner.png"
   inkscape:export-xdpi="90.371994"
   inkscape:export-ydpi="90.371994"><metadata
   id="metadata150"><rdf:RDF><cc:Work
       rdf:about=""><dc:format>image/svg+xml</dc:format><dc:type
         rdf:resource="http://purl.org/dc/dcmitype/StillImage" /><dc:title></dc:title></cc:Work></rdf:RDF></metadata><sodipodi:namedview
   pagecolor="#ffffff"
   bordercolor="#666666"
   borderopacity="1"
   objecttolerance="10"
   gridtolerance="10"
   guidetolerance="10"
   inkscape:pageopacity="0"
   inkscape:pageshadow="2"
   inkscape:window-width="1842"
   inkscape:window-height="1173"
   id="namedview148"
   showgrid="false"
   inkscape:zoom="1.6774194"
   inkscape:cx="302.78934"
   inkscape:cy="181.17592"
   inkscape:window-x="-9"
   inkscape:window-y="101"
   inkscape:window-maximized="1"
   inkscape:current-layer="Layer_1"
   fit-margin-top="0"
   fit-margin-left="0"
   fit-margin-right="0"
   fit-margin-bottom="0" />

<defs
   id="defs3">
<xhtml:link
   href="http://fonts.googleapis.com/css?family=Open+Sans"
   rel="stylesheet"
   type="text/css" />
<linearGradient
   id="linearGradient4141"><stop
     id="stop4143"
     offset="0"
     style="stop-color:#e1ffff;stop-opacity:1;" /><stop
     id="stop4145"
     offset="1"
     style="stop-color:#5ba4a4;stop-opacity:1;" /></linearGradient><linearGradient
   id="linearGradient4105"><stop
     id="stop4107"
     offset="0"
     style="stop-color:#f6ff4a;stop-opacity:1;" /><stop
     id="stop4109"
     offset="1"
     style="stop-color:#ffff00;stop-opacity:1;" /></linearGradient><linearGradient
   gradientUnits="userSpaceOnUse"
   y2="-1100.2925"
   x2="732.46716"
   y1="-1100.2925"
   x1="412.99265"
   id="linearGradient4119"
   xlink:href="#linearGradient4105"
   inkscape:collect="always" /><linearGradient
   gradientUnits="userSpaceOnUse"
   y2="-1173.6431"
   x2="443.60681"
   y1="-1042.8918"
   x1="442.44952"
   id="linearGradient4147"
   xlink:href="#linearGradient4141"
   inkscape:collect="always"
   gradientTransform="matrix(0.42066842,0,0,0.42066842,-3.231012,582.60037)" /><linearGradient
   inkscape:collect="always"
   xlink:href="#linearGradient4105"
   id="linearGradient3612"
   gradientUnits="userSpaceOnUse"
   x1="412.99265"
   y1="-1100.2925"
   x2="732.46716"
   y2="-1100.2925" /><linearGradient
   inkscape:collect="always"
   xlink:href="#linearGradient4105"
   id="linearGradient3614"
   gradientUnits="userSpaceOnUse"
   x1="412.99265"
   y1="-1100.2925"
   x2="732.46716"
   y2="-1100.2925" /><linearGradient
   inkscape:collect="always"
   xlink:href="#linearGradient4105"
   id="linearGradient3616"
   gradientUnits="userSpaceOnUse"
   x1="412.99265"
   y1="-1100.2925"
   x2="732.46716"
   y2="-1100.2925" /><linearGradient
   inkscape:collect="always"
   xlink:href="#linearGradient4105"
   id="linearGradient3618"
   gradientUnits="userSpaceOnUse"
   x1="412.99265"
   y1="-1100.2925"
   x2="732.46716"
   y2="-1100.2925" /><linearGradient
   inkscape:collect="always"
   xlink:href="#linearGradient4105"
   id="linearGradient3620"
   gradientUnits="userSpaceOnUse"
   x1="412.99265"
   y1="-1100.2925"
   x2="732.46716"
   y2="-1100.2925" /><linearGradient
   inkscape:collect="always"
   xlink:href="#linearGradient4105"
   id="linearGradient3622"
   gradientUnits="userSpaceOnUse"
   x1="412.99265"
   y1="-1100.2925"
   x2="732.46716"
   y2="-1100.2925" /><linearGradient
   inkscape:collect="always"
   xlink:href="#linearGradient4105"
   id="linearGradient3624"
   gradientUnits="userSpaceOnUse"
   x1="412.99265"
   y1="-1100.2925"
   x2="732.46716"
   y2="-1100.2925" /><linearGradient
   inkscape:collect="always"
   xlink:href="#linearGradient4105"
   id="linearGradient3626"
   gradientUnits="userSpaceOnUse"
   x1="412.99265"
   y1="-1100.2925"
   x2="732.46716"
   y2="-1100.2925" /><linearGradient
   inkscape:collect="always"
   xlink:href="#linearGradient4105"
   id="linearGradient3628"
   gradientUnits="userSpaceOnUse"
   x1="412.99265"
   y1="-1100.2925"
   x2="732.46716"
   y2="-1100.2925" /><linearGradient
   inkscape:collect="always"
   xlink:href="#linearGradient4105"
   id="linearGradient3630"
   gradientUnits="userSpaceOnUse"
   x1="412.99265"
   y1="-1100.2925"
   x2="732.46716"
   y2="-1100.2925" /></defs>

<g
   transform="translate(-108.43967,-360.663)"
   id="g5"
   inkscape:export-xdpi="89.709999"
   inkscape:export-ydpi="89.709999">

<g
   id="background">
<rect
   id="bgMiddle"
   style="fill:#f0f0f0"
   x="207"
   y="361.5"
   width="204"
   height="69" />

<g
   id="bgLeft">
  <clipPath
   id="clipLeft">
    <rect
   id="clipLeftRect"
   x="107"
   y="361"
   width="100"
   height="70" />
  </clipPath>
  <path
   id="bgLeftPath"
   style="fill:#f0f0f0"
   d="m 504.016,393.119 -17.203,-28.654 c -0.951,-1.582 -3.242,-2.881 -5.092,-2.881 l -0.057,0 -371.181,0.004 c -1.719,0 -2.408,1.135 -1.738,2.564 l 17.322,28.959 c 0.951,1.59 0.951,4.18 0,5.762 l -17.211,28.652 c -0.951,1.582 -0.216,2.881 1.627,2.881 l 371.237,-0.004 c 1.85,0 4.141,-1.291 5.092,-2.879 l 17.203,-28.645 c 0.953,-1.587 0.953,-4.177 0.001,-5.759 z"
   clip-path="url(#clipLeft)"
   inkscape:connector-curvature="0" />
</g>

<g
   id="bgRight"
   transform="translate(5,0)">
  <clipPath
   id="clipRight">
    <rect
   id="clipRightRect"
   x="405"
   y="361"
   width="100"
   height="70" />
  </clipPath>
  <path
   id="bgRightPath"
   style="fill:#f0f0f0"
   d="m 504.016,393.119 -17.203,-28.654 c -0.951,-1.582 -3.242,-2.881 -5.092,-2.881 l -0.057,0 -371.181,0.004 c -1.719,0 -2.408,1.135 -1.738,2.564 l 17.322,28.959 c 0.951,1.59 0.951,4.18 0,5.762 l -17.211,28.652 c -0.951,1.582 -0.216,2.881 1.627,2.881 l 371.237,-0.004 c 1.85,0 4.141,-1.291 5.092,-2.879 l 17.203,-28.645 c 0.953,-1.587 0.953,-4.177 0.001,-5.759 z"
   clip-path="url(#clipRight)"
   inkscape:connector-curvature="0" />
</g>

</g>

<mask
   id="SVGID_8_">
  <use
   xlink:href="#background"
   style="overflow:visible"
   id="use18"
   x="0"
   y="0"
   width="100%"
   height="100%" />
</mask>
<g
   id="backgroundImage"
   style="display:none"
   mask="url(#SVGID_8_)">
  <image
   transform="translate(107,361)"
   id="image"
   width="403"
   height="268.66699"
   xlink:href=""
   y="0" />
</g>
<g
   id="world"
   mask="url(#SVGID_8_)">
	<path
   style="fill:#e0e0e0"
   d="m 274.912,331.339 c 0.17,-0.072 0.597,0.106 0.714,0 0.382,-0.343 0.642,-1.474 1.084,-2.15 0.601,-0.923 1.242,-0.958 1.423,-1.791 0.164,-0.674 -0.64,-2.503 -0.339,-3.937 0.099,-0.567 0.699,-0.83 1.062,-1.421 0.672,-1.136 1.125,-1.964 1.785,-3.219 0.711,-1.327 0.883,-3.33 0.359,-5.736 0.529,-0.424 1.005,-0.893 1.439,-1.429 -0.75,-3.098 -0.016,-6.104 1.428,-8.59 0.315,-0.557 0.511,-1.167 0.714,-1.43 1.181,-1.654 4.053,-2.475 3.941,-5.015 -1.059,-1.82 -3.8,-1.493 -5.737,-0.699 -0.318,-0.642 -0.859,-1.062 -1.07,-1.808 0.283,-1.035 1.693,-0.918 1.421,-2.498 -0.509,-1.023 -1.622,-1.341 -2.495,-2.143 -1.474,-1.372 -2.033,-2.6 -4.293,-3.219 -0.673,-0.191 -1.956,-0.404 -2.497,-0.357 -0.723,0.035 -1.873,1.17 -3.229,1.426 -0.972,0.185 -2.033,-0.205 -2.505,0 -1.419,0.627 -2.088,2.574 -3.574,3.21 -1.213,0.535 -1.937,-0.519 -2.867,0.731 -0.901,-1.482 -3.142,-1.63 -5.729,-1.443 -0.176,-4.702 -4.25,-5.523 -7.512,-7.158 l -5.714,0 c -1.784,1.927 -5.659,1.746 -8.599,2.518 -1.04,0.619 -0.9,2.425 -1.793,3.22 -0.715,-0.369 -0.554,-1.591 -1.776,-1.443 -3.732,1.653 -4.975,5.775 -5.387,10.74 0.33,1.474 2.659,0.943 2.88,2.508 -0.593,1.917 -2.599,2.416 -4.665,2.86 -1.783,-0.123 -1.287,-2.538 -3.571,-2.15 -2.346,1.876 2.748,4.446 -0.369,6.08 -1.729,-0.854 -2.597,-2.487 -1.774,-4.994 -1.247,-1.575 -2.889,-0.581 -5.374,-0.732 -1.076,2.063 0.81,3.239 1.069,5.016 1.706,0.215 3.162,0.659 3.584,2.142 1.12,0.184 1.262,-0.639 2.495,-0.337 1.393,2.867 7.244,4.375 10.741,2.845 0.443,-1.012 0.443,-2.215 0,-3.207 -2.096,-1.564 -5.868,0.732 -6.429,-2.154 2.006,-1.176 2.988,1.423 5.717,0.712 0.86,1.034 2.065,1.18 3.578,0.711 1.047,-1.482 1.406,-3.098 2.859,-4.283 0.454,-0.369 1.469,-0.317 2.146,-0.711 0.593,-0.342 0.742,-1.097 1.438,-1.086 0.531,-1.018 0.652,-2.446 1.421,-3.218 2.82,-0.292 4.008,-2.194 6.451,-2.857 0.398,1.03 0.642,2.216 0.711,3.58 -1.75,1.693 -5.607,1.294 -7.871,2.495 0.91,2.968 -0.945,6.608 1.078,8.588 2.96,0.68 5.05,0.029 6.441,2.152 0.741,1.137 1.205,4.566 1.084,7.165 -0.062,1.024 -0.699,2.103 -0.732,3.219 -0.031,1.034 0.462,2.205 0.36,2.854 -0.167,1.069 -1.392,1.888 -1.071,2.863 -0.142,1.462 1.524,1.104 1.793,2.147 -0.982,1.371 -2.614,2.844 -2.867,5.374 -0.188,1.907 0.792,6.148 1.434,8.222 0.521,1.756 0.665,2.832 1.788,3.583 0.359,0.227 0.989,0.069 1.431,0.357 0.934,0.596 1.364,1.933 2.51,1.438 1.709,-1.111 2.063,-3.209 3.217,-5.015 0.161,-0.263 0.144,-0.794 0.364,-1.063 0.097,-0.161 0.631,-0.233 0.7,-0.375 0.565,-1.02 0.34,-2.322 1.438,-3.209 0.949,-0.781 3.576,-0.66 5.371,-1.806 1.385,-0.868 2.116,-2.785 3.932,-3.566 1.334,-0.586 3.531,-0.38 5.017,-1.073 0.159,-0.093 0.23,-0.663 0.36,-0.713 0.184,-0.082 0.541,0.111 0.711,0 0.131,-0.101 0.244,-0.663 0.35,-0.721 z"
   id="path23"
   inkscape:connector-curvature="0" />
	<path
   style="fill:#e0e0e0"
   d="m 367.235,294.115 c 0.221,0.132 0.473,0.604 0.724,0.726 2.155,0.955 3.647,0.058 5.364,-0.361 0.662,0.902 0.662,2.445 2.147,2.508 1.216,-0.454 2.057,-1.297 2.511,-2.508 -0.717,-0.804 -1.382,-2.059 -2.873,-2.15 -1.093,-0.069 -1.423,0.364 -2.495,0.717 -1.168,-1.574 -2.492,-3.001 -5.017,-3.224 -0.662,-1.352 -1.401,-2.634 -3.571,-2.498 -1.354,1.767 -0.773,3.941 0.353,5.359 0.257,0.323 2.417,1.153 2.857,1.431 z"
   id="path25"
   inkscape:connector-curvature="0" />
	<path
   style="fill:#e0e0e0"
   d="m 218.014,297.345 c 0.834,0 1.677,0 2.511,0 0.188,1.115 0.635,1.999 1.073,2.861 0.992,0.26 1.092,-0.813 1.434,-1.443 1.466,-2.698 -0.402,-3.532 -2.155,-4.647 0.099,-1.504 -1.036,-1.815 -1.436,-2.85 -3.693,-0.343 -3.109,4.788 -1.427,6.079 z"
   id="path27"
   inkscape:connector-curvature="0" />
	<path
   style="fill:#e0e0e0"
   d="m 416.982,293.046 c -0.989,-2.396 -6.128,-1.381 -7.861,-0.362 -0.526,6.079 7.462,4.615 7.861,0.362 z"
   id="path29"
   inkscape:connector-curvature="0" />
	<path
   style="fill:#e0e0e0"
   d="m 421.987,292.329 c -0.119,-0.722 -1.295,-0.857 -2.495,-0.356 -0.072,2.415 2.689,1.39 2.495,0.356 z"
   id="path31"
   inkscape:connector-curvature="0" />
	<path
   style="fill:#e0e0e0"
   d="m 209.068,296.26 c 0.942,-0.369 1.604,-1.02 1.786,-2.145 0.855,-0.337 1.766,-0.63 1.438,-2.143 -0.595,0 -1.188,0 -1.788,0 0.05,1.845 -2.353,1.234 -3.219,2.143 -0.071,1.389 0.573,2.059 1.783,2.145 z"
   id="path33"
   inkscape:connector-curvature="0" />
	<path
   style="fill:#e0e0e0"
   d="m 338.263,298.061 c 0.858,0.098 0.67,-0.201 1.431,-0.716 1.295,-0.898 1.232,-0.943 1.786,-2.153 0.3,-0.633 0.975,-0.854 0.711,-1.424 -1.034,-0.893 -1.785,1.542 -3.219,1.424 -0.731,-0.459 -0.64,-1.73 -2.147,-1.424 -1.542,2.113 -0.144,4.091 1.438,4.293 z"
   id="path35"
   inkscape:connector-curvature="0" />
	<path
   style="fill:#e0e0e0"
   d="m 199.423,300.206 c -0.272,2.648 1.112,3.65 2.133,5.005 3.302,-0.813 7.893,0.781 8.599,-2.145 0.269,-1.216 -0.543,-0.864 -1.086,-1.797 -0.36,-0.601 0.092,-1.838 -1.062,-1.775 -1.495,-0.287 -0.682,1.714 -2.157,1.422 -1.071,-0.831 -1.513,-2.295 -2.147,-3.571 0.302,-1.01 1.162,-1.474 1.076,-2.865 -1.535,-1.087 -2.64,-0.662 -3.934,0 -1.413,0.722 -3.953,1.522 -3.953,2.865 0.532,1.276 2.11,1.497 2.531,2.861 z"
   id="path37"
   inkscape:connector-curvature="0" />
	<path
   style="fill:#e0e0e0"
   d="m 333.61,299.125 c 0,-0.704 0,-1.427 0,-2.138 -1.027,-0.834 -2.704,-0.058 -3.587,0.357 0.326,1.555 1.869,2.678 3.587,1.781 z"
   id="path39"
   inkscape:connector-curvature="0" />
	<path
   style="fill:#e0e0e0"
   d="m 474.961,300.563 c -1.859,-1.069 -3.428,0.317 -4.662,0.353 -1.091,0.031 -2.356,-0.529 -3.568,-0.71 -0.823,-0.121 -1.605,0.09 -2.511,0 -1.8,-0.203 -3.647,-0.902 -5.366,-1.081 -2.811,-0.261 -4.037,0.92 -6.076,1.081 -0.432,0.533 -0.459,1.468 -1.084,1.796 -1.395,-0.272 -2.215,1.004 -3.217,1.423 -0.725,0.312 -1.646,0.412 -2.5,0.725 -0.801,0.263 -1.436,0.979 -2.517,0.696 -1.493,-0.731 -2.394,-2.674 -4.288,-2.844 -1.788,-0.162 -3.316,1.716 -5.008,1.785 -0.58,0.021 -0.915,-0.2 -1.446,-0.362 -0.49,-0.164 -1.462,-0.208 -1.772,-0.358 -1.084,-0.475 -1.364,-1.596 -2.87,-1.797 -1.086,-0.121 -2.065,0.57 -3.216,0.732 -1.68,0.221 -3.136,-0.449 -4.65,0.348 -0.92,1.104 0.102,2.554 0,3.936 -1.305,0.609 -2.677,1.155 -4.298,1.442 -1.119,0.414 -1.014,2.074 -2.501,2.133 -2.926,-1.951 -3.166,-6.608 -9.316,-5.352 -0.655,1.005 -0.655,2.663 -2.138,2.85 -1.612,0.087 -2.295,-0.995 -3.946,-1.073 -1.909,-0.092 -4.288,1.845 -6.08,0 0.48,-5.469 -3.471,-9.137 -8.226,-7.16 -1.752,-0.514 -2.568,-1.957 -4.654,-2.138 -0.04,0.555 -0.913,0.277 -0.712,1.073 -1.272,1.171 0.327,2.926 0,3.941 -0.543,1.619 -1.896,1.806 -3.931,2.147 -1.751,2.827 -6.165,3.921 -4.663,8.936 -0.721,0.697 -2.357,0.511 -2.509,1.79 -0.822,0.375 -0.729,1.65 -0.698,2.853 -1.618,0.675 -2.472,2.098 -4.307,2.518 -1.395,-0.985 -1.933,-2.833 -4.283,-2.867 -0.341,1.464 -1.171,5.024 -1.082,6.438 0.092,1.474 1.73,2.76 0.72,3.941 -2.183,-0.42 -3.405,-0.785 -5.722,-0.36 -0.213,0.63 0.426,2.098 -0.361,2.155 -1.654,1.421 -3.927,0.493 -5.721,1.084 -0.141,0.024 -0.549,0.609 -0.73,0.702 -0.462,0.242 -1.024,0.059 -1.417,0.356 -1.13,0.833 -1.282,2.679 -2.877,2.862 -0.694,-0.854 -0.471,-2.629 -2.147,-2.498 -1.466,0.702 0.953,4.011 -1.421,4.283 -1.558,-0.111 -1.356,-1.969 -2.15,-2.871 -2.788,-1.483 -5.635,-2.946 -9.306,-3.566 -0.989,-1.124 -1.723,-2.22 -2.856,-2.508 -3.357,-0.831 -5.838,1.395 -7.162,2.155 -1.015,0.576 -1.553,0.635 -2.147,1.084 -0.731,0.53 -1.345,0.999 -1.793,1.423 -1.216,1.124 -0.923,2.498 -1.424,3.924 -0.211,0.601 -1.071,1.282 -1.437,2.146 -0.403,0.983 -0.3,2.123 -0.714,2.869 -0.067,0.116 -0.61,0.237 -0.723,0.354 -0.248,0.288 -0.105,0.777 -0.349,1.074 -1.843,2.302 -3.909,2.629 -5.367,4.657 0.114,2.864 0.303,5.655 1.778,7.158 2.316,0.524 2.426,-1.172 4.293,-1.069 0.501,0.692 0.348,2.038 0.732,2.854 -0.531,-0.518 -2.35,-0.518 -2.882,0 -0.812,1.521 0.21,2.74 0,4.657 -0.901,0.64 -1.981,1.116 -3.21,1.424 -0.949,0.963 -1.434,2.396 -2.867,2.859 -0.148,-1.775 -3.37,-5.156 -4.652,-7.864 -0.361,-0.794 0.062,-1.828 -0.353,-2.503 -0.694,-1.155 -2.346,-1.241 -3.229,-0.726 -1.002,0.68 -0.662,2.668 -0.712,4.303 -2.458,0.751 -4.643,3.288 -3.584,6.428 2.078,0.422 2.611,-0.721 3.946,-1.065 0.511,-1.149 0.151,-3.178 1.783,-3.218 0.694,1.479 -1.256,4.323 0,6.441 1.205,0.228 3.33,-0.454 3.943,0.36 -0.685,1.225 -2.413,1.425 -3.582,2.147 0.07,2.37 3.46,2.937 2.859,5.374 -0.814,3.409 -5.044,0.548 -7.866,2.138 -0.893,0.722 -0.198,2.009 -0.36,3.225 -0.258,1.956 -1.172,3.585 -0.361,4.999 1.226,1.382 2.974,0.762 3.222,2.508 0.282,1.922 -1.947,2.375 -3.584,4.303 -0.751,0.893 -0.838,3.598 -1.059,3.931 -0.725,1.079 -2.537,1.614 -3.578,2.507 -1.236,1.045 -2.039,2.474 -2.86,3.946 -0.545,0.942 -1.319,2.254 -1.446,3.207 -0.2,1.515 0.512,3.9 0.36,5.73 -0.06,0.638 -0.63,1.258 -0.699,1.787 -0.652,3.865 1.64,4.516 3.206,6.452 0.583,0.722 0.654,1.131 1.077,1.781 0.832,1.267 1.386,1.701 2.504,2.503 1.064,0.76 1.496,1.241 2.495,1.805 2.429,1.312 2.909,0.008 5.729,0 1.001,-0.015 2.077,0.461 2.869,0.34 0.773,-0.103 1.598,-0.783 2.505,-1.076 3.562,-1.148 4.177,-0.489 6.443,1.798 1.612,-0.062 3.189,-0.082 3.576,1.073 0.904,1.717 -0.816,3.602 -0.367,5.727 0.399,1.786 2.376,2.748 3.229,4.293 0.459,0.834 1.146,2.307 1.444,3.571 0.218,1.069 0.53,3.209 0.342,4.298 -0.132,0.829 -1.126,1.196 -1.426,1.781 -0.198,0.394 -0.278,1.18 -0.36,1.443 -0.91,2.946 0.109,5.01 1.072,7.16 0.461,1.044 1.173,2.088 1.434,3.219 0.33,1.446 0.151,2.719 0.352,3.929 0.352,1.999 2.215,3.467 2.87,5.38 0.632,1.85 -0.03,3.98 1.795,5.356 2.577,-0.372 5.427,-0.293 7.503,-0.712 0.432,-0.095 2.455,-1.034 2.517,-1.078 1.024,-0.98 1.967,-1.717 3.222,-3.22 1.645,-1.952 3.168,-3.79 3.568,-6.434 1.288,-1.175 2.369,-0.968 2.87,-2.512 0.446,-1.402 -0.491,-3.363 0,-4.65 0.84,-2.205 5.013,-2.917 6.073,-4.648 1.049,-1.669 0.876,-5.85 0.362,-7.152 -0.421,-1.059 -0.962,-2.18 -1.064,-3.233 -0.197,-1.785 0.372,-2.926 0.702,-3.581 0.804,-1.564 0.997,-1.984 2.148,-3.21 0.843,-0.892 1.845,-2.068 2.497,-2.507 2.076,-1.379 4.53,-3.492 5.387,-5.354 0.053,-0.146 0.63,-0.221 0.702,-0.362 1.113,-1.972 2.225,-4.414 2.515,-6.811 -2.215,-2.346 -7.691,2.456 -8.953,-1.073 0.643,-1.121 2.418,-1.203 3.938,-1.783 1.609,-0.625 3.752,-1.426 5.015,-2.148 0.354,-0.213 0.444,-0.55 0.701,-0.711 1.397,-0.878 2.753,-1.024 3.944,-1.796 0.188,-0.121 0.5,-0.556 0.714,-0.722 1.091,-0.883 1.724,-1.556 2.507,-2.859 0.66,-1.092 1.223,-1.979 1.086,-2.862 -0.354,-2.189 -2.891,-1.221 -3.233,-3.931 3.65,0.603 6.4,0.677 10.382,0.354 1.864,1.595 3.879,3.048 5.002,5.367 1.329,0.116 2.461,0.409 3.231,1.071 0.131,3.187 1.675,5.377 2.508,7.162 0.23,0.521 0.148,0.897 0.348,1.434 0.183,0.454 0.545,0.702 0.714,1.069 0.811,1.664 1.403,3.264 2.513,4.646 1.331,0.261 1.539,-0.611 2.866,-0.354 -0.04,1.711 0.439,2.901 1.793,3.224 0.523,-0.332 1.746,-1.795 0.701,-2.502 0.199,-1.63 -1.903,-0.958 -1.785,-2.503 -0.359,-1.265 0.354,-3.561 0.354,-3.94 0,-0.119 -0.423,-0.787 -0.354,-1.436 0.161,-1.298 3.202,-3.922 4.293,-5.005 2.6,-2.6 3.864,-4.365 7.524,-4.288 1.965,1.951 3.721,4.137 4.644,7.138 1.084,0.511 1.289,-0.161 2.866,0 1.173,1.814 1.965,3.985 2.507,6.447 1.382,-0.151 0.985,-2.125 2.857,-1.795 3.405,1.185 2.421,3.971 5.38,3.943 1.034,-0.016 2.126,-1.437 2.495,-1.791 0.954,-0.888 1.667,-1.493 1.798,-2.517 0.129,-1.084 -0.82,-3.659 -1.081,-3.919 -0.154,-0.164 -0.204,-0.575 -0.365,-0.722 -0.642,-0.633 -1.614,-0.813 -2.135,-1.434 -1.848,-2.16 -0.725,-5.016 2.135,-4.652 1.05,0.783 -1.162,3.244 1.086,3.224 1.573,-0.094 0.686,-2.644 1.419,-3.571 2.882,-1.229 5.467,-1.882 7.165,-3.576 1.632,-1.645 1.612,-2.267 2.506,-4.657 0.835,-2.215 1.202,-2.885 0.703,-5.01 -0.141,-0.649 -0.188,-1.78 -0.352,-2.158 -0.303,-0.793 -1.371,-1.555 -1.796,-2.145 -0.327,-0.469 -0.501,-1.126 -0.704,-1.429 -0.558,-0.801 -0.689,-0.419 -0.722,-1.421 -0.029,-1.438 2.485,-2.609 1.426,-3.579 -1.476,-1.034 -3.542,0.707 -4.28,-1.078 0,-1.791 1.134,-2.443 2.145,-3.225 1.154,1.302 1.999,1.513 4.283,1.081 0.801,1.704 2.297,2.939 3.239,4.646 0.488,0.917 0.268,2.274 1.434,2.864 1.054,-0.129 1.808,-0.568 2.49,-1.074 0.458,-3.903 -2.218,-4.691 -3.224,-7.157 1.128,-1.394 1.215,-3.789 2.147,-5.369 0.865,-0.581 2.309,-0.57 3.229,-1.079 0.984,-1.297 1.868,-3.311 2.51,-5.357 0.551,-1.827 1.446,-4.885 1.419,-6.448 -0.005,-1.16 -1.34,-2.199 -0.345,-3.224 0.422,1.851 0.962,3.577 2.505,4.294 2.738,-3.771 -2.436,-6.479 -2.879,-10.367 -3.668,-1.02 -8.162,0.06 -8.943,-2.872 -0.062,-0.298 0.57,-3.059 0.719,-3.582 0.042,-0.126 0.674,-0.521 0.715,-0.711 0.316,-1.191 0.168,-3.507 0.724,-4.298 1.071,-1.555 2.946,-1.19 4.64,-1.786 1.298,-0.443 1.888,-1.525 2.865,-1.429 1.56,0.072 2.415,1.258 3.948,0.365 1.332,-1.506 -0.801,-6.487 1.793,-7.521 1.788,-0.36 1.74,1.113 3.209,1.073 0.933,-0.171 1.205,-1.967 2.148,-1.073 -0.796,2.244 -0.251,4.767 -0.715,7.156 -0.208,1.116 -0.939,2.141 -1.071,3.215 -0.57,4.673 1.336,6.518 2.859,8.955 1.082,1.733 1.964,3.961 3.579,4.65 1.788,-1.392 1.021,-4.723 1.434,-6.795 0.111,-0.556 0.712,-0.913 0.712,-1.438 0.02,-0.544 -0.591,-1.522 -0.712,-2.503 -0.137,-1.073 0.171,-2.352 0,-2.869 -0.399,-1.155 -2.019,-1.947 -2.508,-3.215 -0.62,-1.579 0.172,-2.692 -0.711,-3.94 1.606,-1.503 3.3,-2.895 6.091,-3.216 0.538,-2.316 1.147,-4.562 2.135,-6.438 0.647,-0.903 2.436,-0.653 2.515,-2.16 -0.438,-2.704 -3.315,-3.036 -3.941,-5.353 -0.118,-0.454 0.36,-1.513 0.355,-2.15 0,-0.982 -0.474,-1.382 -0.355,-2.507 1.233,-1.588 3.331,-0.187 5.368,-1.06 0.855,-1.508 -0.573,-2.107 -0.725,-3.581 0.179,-1.866 -0.341,-3.006 -1.066,-3.944 z M 331.1,337.776 c 1.184,0.372 2.93,0.181 3.938,0.719 0.024,1.93 -2.247,1.575 -3.938,1.788 -0.513,-0.475 -0.513,-2.012 0,-2.507 z m 0.36,35.061 c 1.835,-0.282 1.455,1.657 2.847,1.809 1.649,0.069 1.649,-1.474 2.158,-2.518 0.359,0 0.724,0 1.083,0 -0.2,3.903 4.032,3.368 5.006,6.089 -1.24,3.005 -3.944,0.741 -6.089,0.357 -2.436,-0.439 -4.281,0.813 -7.15,1.076 -2.077,-1.944 -0.154,-6.029 2.145,-6.813 z m -17.18,-16.098 c -0.119,-2.405 0.744,-3.421 1.434,-5.712 0.05,-1.597 -1.458,-2.168 -1.434,-3.586 0.03,-2.044 1.667,-2.897 3.219,-3.94 0.298,-1.483 0.271,-3.304 1.437,-3.938 0.583,-0.092 0.62,0.342 1.068,0.362 0.404,2.674 -1.835,2.692 -2.505,4.293 -0.089,3.447 0.821,5.867 3.227,6.81 -0.188,3.234 -3.097,4.521 -1.79,8.225 -1.057,0.766 -2.012,-0.132 -3.222,0 -1.766,0.198 -3.638,2.12 -5.015,0.359 0.412,-1.747 2.731,-1.576 3.581,-2.873 z m 15.743,36.501 c -1.603,-0.072 -2.847,-0.656 -4.291,-1.063 -1.502,-0.439 -3.3,-1.208 -3.939,-1.081 -1.588,0.308 -1.596,1.79 -2.857,2.867 -1.374,-0.161 -2.612,-0.517 -3.584,-1.434 -1.141,-1.106 -3.832,-1.151 -5.727,-2.498 0.211,-1.996 -0.164,-3.42 -1.061,-4.303 -3.002,0.166 -5.368,-0.062 -7.882,0.357 -2.651,0.454 -5.159,2.569 -7.877,1.429 1.232,-1.523 3.082,-1.034 4.29,-2.508 0.557,-0.645 0.325,-2.028 0.724,-2.849 0.484,-0.961 1.523,-1.385 2.146,-2.15 0.763,-0.938 0.862,-1.992 1.795,-2.503 1.347,-0.688 3.995,-0.06 4.655,-1.438 2.658,1.398 4.075,4.038 7.15,5.02 0.645,0.662 0.962,1.651 1.785,2.141 3.953,-3.175 -2.777,-4.713 -3.578,-7.507 0.059,-0.425 0.651,-0.313 1.073,-0.375 1.102,1.766 3.601,2.141 5.013,3.584 -0.008,0.84 0.61,1.063 0.352,2.157 1.255,0.561 2.099,4.931 3.94,5 3.023,0.111 1.417,-2.645 1.786,-4.66 0.942,-0.032 1.255,-0.535 1.795,0 0.333,0.361 0.13,1.401 0.354,1.801 0.272,0.448 0.448,0.897 0.731,1.438 0.541,1.074 0.999,1.186 1.785,2.143 3.688,-0.57 5.588,1.228 8.586,0.359 0.603,2.078 -0.384,4.256 -1.437,5.719 -2.112,-0.439 -3.658,0.467 -5.727,0.354 z m 16.821,20.762 c -0.858,-0.011 -1.503,-0.214 -2.146,-0.713 -1.202,-0.932 -1.202,-2.209 -2.145,-3.581 -0.393,-0.55 -1.213,-0.994 -1.425,-1.434 -0.372,-0.741 -0.345,-1.989 -0.731,-2.866 -0.434,-0.978 -1.255,-1.577 -1.788,-2.502 -0.151,-0.267 0.142,-0.792 0,-1.084 -0.24,-0.483 -1.845,-1.464 -1.421,-3.21 0.359,0 0.699,0 1.074,0 0.731,0.853 1.021,1.817 1.783,2.872 0.597,0.831 1.706,1.523 2.145,2.498 0.243,0.542 0.05,1.255 0.363,1.785 1.555,2.602 4.937,4.797 4.291,8.235 z m 2.137,-40.428 c 1.321,-1.2 2.194,-2.83 5.024,-2.522 0.987,1.682 -1.223,1.74 -1.084,3.594 -0.037,1.386 1.535,2.078 2.148,3.219 0.413,0.741 0.413,1.775 0.721,2.495 0.653,1.579 2.309,3.023 1.425,4.647 -1.694,1.068 -3.619,-0.303 -4.646,-1.063 1.077,-5.727 -3.156,-6.152 -3.588,-10.37 z m 9.677,28.248 c -1.803,-0.005 -3.819,-3.81 -5.012,-4.995 -0.411,-0.529 -0.411,-0.908 0,-1.434 0.359,0 0.722,0 1.064,0 1.199,2.497 4.069,3.326 6.81,4.283 -0.961,1.298 -1.696,2.171 -2.862,2.146 z"
   id="path41"
   inkscape:connector-curvature="0" />
	<path
   style="fill:#e0e0e0"
   d="m 419.852,299.842 c 0.211,-1.28 -1.066,-1.094 -2.145,-1.079 -0.492,1.615 1.44,1.746 2.145,1.079 z"
   id="path43"
   inkscape:connector-curvature="0" />
	<path
   style="fill:#e0e0e0"
   d="m 309.625,312.732 c 2.349,-0.156 1.342,-3.662 3.222,-4.306 0.469,0.965 0.771,2.096 2.505,1.799 1.347,-2.408 -2.225,-2.701 -2.145,-5.015 1.943,-0.561 3.992,-1.005 3.94,-3.574 -0.973,-1.305 -3.42,-1.119 -5.727,-1.073 -0.97,0.697 -1.635,1.711 -2.856,2.149 -0.867,0.469 -2.48,0.142 -3.229,0.712 -1.155,2.8 1.272,4.523 2.497,6.079 0.05,1.64 0.873,2.488 1.793,3.229 z"
   id="path45"
   inkscape:connector-curvature="0" />
	<path
   style="fill:#e0e0e0"
   d="m 255.235,436.895 c -0.989,-0.731 -2.226,-1.893 -2.86,-2.145 -1.622,-0.62 -3.72,-0.206 -5.376,-0.705 -0.742,-0.238 -1.364,-1.096 -2.134,-1.428 -0.954,-0.425 -1.864,-0.142 -2.51,-0.362 -2.267,-0.809 -2.066,-2.205 -2.864,-3.94 -0.385,-0.834 -0.925,-1.99 -1.438,-2.508 -0.126,-0.142 -1.532,-1.141 -2.146,-1.424 -1.237,-0.565 -2.093,-0.2 -3.578,-0.362 -1.538,-0.155 -3.284,-2.56 -4.283,-3.219 -0.883,-0.585 -1.637,-1.942 -2.145,-2.15 -1.739,-0.665 -4.284,0.243 -5.73,0 -1.604,-0.263 -2.114,-1.25 -3.226,-1.431 -2.81,-0.472 -4.725,0.108 -5.729,0.709 -1.021,0.638 -1.478,1.932 -3.209,2.513 -0.603,0.198 -1.384,-0.226 -1.798,0.359 l -0.277,0.272 c -0.172,-0.042 -0.351,-0.058 -0.531,-0.01 l -0.263,-0.263 c -2.564,-0.375 -3.861,-1.086 -4.293,-3.219 -0.273,-1.366 1.165,-2.912 0.362,-4.294 -0.732,-1.545 -4.043,-0.511 -5.018,-1.795 -0.849,-1.901 1.624,-3.307 1.086,-6.086 -3.71,-1.488 -3.71,1.853 -5.377,2.866 -3.98,2.426 -7.03,-1.442 -6.44,-6.073 0.102,-0.873 1.256,-5.15 1.426,-5.374 0.601,-0.796 3.708,-2.108 4.306,-2.153 0.96,-0.037 2.086,0.861 3.207,0.72 0.955,-0.348 1.645,-1.24 2.879,-1.431 1.924,-0.293 4.171,0.649 5.356,1.431 0.39,2.11 0.39,4.628 2.87,4.647 1.984,-2.361 -0.907,-4.626 0,-7.512 0.187,-0.615 0.858,-0.953 1.424,-1.434 1.18,-0.997 2.096,-1.689 3.229,-2.502 0.7,-0.51 1.535,-0.732 1.773,-1.079 0.813,-1.137 0.523,-2.771 1.081,-3.937 0.342,-0.712 1.216,-1.381 1.788,-2.152 1.483,-1.927 2.155,-2.74 4.644,-3.209 0.661,-2.049 1.577,-4.122 3.94,-4.294 1.195,-0.091 1.806,0.602 3.231,0.723 1.634,-1.116 4.28,-1.213 4.992,-3.22 -1.825,-0.337 -2.663,-0.364 -3.559,-1.795 -0.29,-0.454 0.188,-1.667 0,-2.507 -0.251,-1.058 -1.947,-1.151 -0.724,-1.787 1.827,0.402 2.779,0.782 4.282,0.348 1.256,-0.337 3.031,-1.361 3.954,-0.717 -0.271,1.533 -1.675,1.923 -1.437,3.946 1.676,0.816 3.45,1.558 6.081,1.438 1.213,-2.658 -1.421,-3.891 -2.15,-5.746 1.024,-2.276 0.816,-4.174 0,-5.354 -0.247,-0.363 -0.511,-1.195 -0.709,-1.439 -0.854,-0.972 -2.218,-1.21 -2.856,-2.489 -0.663,-1.332 -0.462,-2.822 -0.726,-3.946 -0.263,-1.175 -0.441,-2.194 -1.076,-3.581 -2.534,-0.399 -1.885,2.416 -4.64,1.796 -1.014,-1.092 -0.533,-2.287 -0.372,-3.941 -1.699,-2.22 -3.889,-5.525 -7.864,-4.298 -0.97,1.288 -0.28,2.785 -0.712,4.298 -0.319,1.132 -1.324,1.981 -1.432,3.229 -0.124,1.229 0.752,2.75 0.348,3.931 -0.501,1.523 -3.006,1.831 -3.931,3.571 -1.074,2.017 0.707,3.178 -1.434,4.65 -1.977,-0.387 -0.479,-4.282 -1.434,-5.709 -0.35,-0.668 -1.183,-0.409 -1.785,-0.723 -1.748,-0.92 -3.167,-2.971 -4.652,-3.944 -0.244,-0.162 -0.475,-0.214 -0.715,-0.365 -1.394,-0.812 -1.664,-1.371 -2.146,-2.85 -1.25,-3.819 1.66,-5.586 3.932,-7.517 1.772,-1.499 3.599,-3.254 6.078,-3.21 0.963,0.34 0.893,1.731 1.795,2.146 1.724,-0.525 2.838,-0.683 4.291,-0.731 0.315,-2.322 -2.135,-3.439 -1.424,-4.995 2.188,-1.054 3.632,-1.785 4.286,-3.945 0.508,-1.624 1.2,-3.244 2.155,-4.294 2.447,-0.429 3.088,0.961 3.581,2.503 -0.021,1.546 -1.896,1.21 -1.446,3.239 1.585,0.458 2.59,-1.693 3.229,0 -0.24,2.497 -2.237,3.249 -3.568,4.643 -1.417,0.03 -3.15,-0.277 -2.867,1.436 -0.151,1.922 2.998,0.57 3.941,1.414 0.766,0.811 0.828,2.668 1.772,3.586 0.675,0.643 2.447,1.468 3.229,1.423 0.662,-0.019 2.56,-1.141 2.858,-1.423 1.612,-1.453 0.191,-3.688 -0.363,-5.731 1.349,-0.035 1.096,1.545 2.874,1.081 1.562,-0.975 2.465,-1.503 2.505,-2.867 0.018,-0.922 -1.121,-1.693 -1.788,-2.502 -0.819,-0.973 -1.688,-1.587 -1.791,-2.507 0.14,-1.412 0.792,-2.123 0.709,-3.22 -0.19,-2.729 -3.489,-4.119 -4.652,-6.81 -0.49,-1.156 -0.771,-2.255 -0.702,-3.919 -1.083,-1.585 -3.469,-1.005 -5.387,-1.434 -0.722,-0.172 -1.274,-0.571 -1.785,-0.722 -4.472,-1.434 -7.16,3.596 -6.791,8.234 0.653,1.038 1.898,1.521 1.784,3.219 -0.067,1.044 -1.04,2.576 -2.495,2.507 -0.491,-1.463 -2.22,-2.789 -2.518,-4.643 -0.072,-0.533 0.322,-1.547 0.361,-2.157 0.1,-1.535 -0.229,-3.199 0.36,-4.653 1.938,-1.286 5.712,-0.745 5.015,-4.657 -1.432,-1.25 -3.489,-1.133 -5.015,0 -1.649,-2.611 -3.491,-1.319 -5.015,0 -1.743,1.53 -2.026,1.818 -1.422,3.583 0.107,0.329 0.107,1.02 0.36,1.439 0.462,0.826 1.704,1.007 1.783,2.143 0.05,0.707 -0.211,1.015 -0.359,1.434 -0.689,2.024 -1.694,2.024 -3.581,2.869 -0.683,1.233 -0.201,2.609 -1.786,3.209 -1.746,0.65 -4.372,-0.525 -4.293,-2.512 2.661,0.055 4.715,-1.381 5.008,-3.214 0.111,-0.655 -0.496,-0.858 -0.715,-1.422 -0.672,-1.803 -0.119,-4.268 0.35,-5.379 0.583,-1.312 2.279,-2.004 2.15,-3.936 -2.26,-1.401 -3.552,1.614 -5.719,1.424 -2.45,-0.196 -3.259,-2.342 -3.569,-5.728 -2.302,-1.82 -4.813,-2.774 -6.46,-1.059 -1.764,1.835 -5.783,4.854 -4.283,7.512 1.104,1.064 3.521,-0.364 4.283,0.357 -0.573,1.358 0.253,2.833 0,3.936 -0.082,0.399 -0.854,0.985 -1.062,1.434 -0.345,0.702 0.079,2.029 -1.082,1.796 -1.679,-0.111 -2.108,-1.479 -2.864,-2.507 -2.505,-0.357 -4.107,-1.615 -5.364,-3.229 -3.502,-0.029 -6.598,0.328 -9.655,0.722 -0.754,-0.692 -1.364,-1.503 -1.798,-2.508 -1.284,-0.131 -1.594,-1.512 -2.507,-2.149 -0.734,-0.509 -2.165,-0.751 -3.22,-1.422 -0.148,-0.111 -0.191,-0.59 -0.361,-0.731 -0.288,-0.224 -0.794,-0.151 -1.074,-0.354 -0.171,-0.108 -0.171,-0.58 -0.348,-0.71 -0.332,-0.248 -0.791,-0.101 -1.073,-0.358 -0.731,-0.665 -0.905,-1.59 -1.427,-2.148 -0.823,-0.854 -1.304,-1.12 -2.505,-1.423 -2.088,-0.541 -3.844,0.317 -5.017,0.711 -0.682,0.23 -1.607,0.109 -2.147,0.354 -1.374,0.608 -2.396,1.937 -3.938,2.507 -1.255,0.458 -2.701,-0.253 -3.574,1.068 -0.369,2.639 1.104,5.327 0,7.513 -1.183,0.142 -1.751,-1.392 -3.229,-1.422 -0.311,-0.009 -1.253,0.488 -1.793,0.709 -2.201,0.926 -2.078,2.316 -1.778,4.658 0.642,1.394 3.611,0.443 3.93,2.146 -0.627,2.45 -3.395,1.079 -4.999,1.795 -0.265,0.111 -0.865,0.923 -1.438,1.421 -0.64,0.565 -1.553,1.047 -1.793,1.434 -0.62,1.055 -1.181,3.411 -1.064,4.294 0.201,1.624 2.501,2.048 2.139,4.657 0.913,0.65 2.455,0.65 2.502,2.138 -1.129,3.276 -5.322,3.507 -7.147,6.086 3.974,0.04 5.617,-2.234 8.586,-3.209 1.426,-0.365 1.071,1.054 2.51,0.702 2.115,-1.097 1.094,-4.784 3.207,-5.365 1.975,1.521 5.573,0.34 7.158,-0.726 0.724,0.453 1.438,1.155 2.514,1.808 0.828,0.483 2.141,0.761 2.864,1.436 0.402,0.37 1.126,2.176 1.434,2.503 1.394,1.438 0.955,3.063 1.414,5.359 0.104,0.444 0.193,0.801 0.364,1.431 0.161,0.57 0.258,1.506 0.357,1.788 0.387,0.913 1.485,1.635 1.787,2.495 0.18,0.516 -0.14,1.505 0,2.16 0.133,0.53 0.646,1.171 0.726,1.424 0.627,2.122 -0.021,3.298 -0.362,5.014 0.57,1.543 1.924,2.356 2.143,3.946 0.095,0.568 -0.275,1.139 -0.348,1.771 -0.243,2.138 -0.325,2.367 -0.711,3.592 -0.615,1.922 -1.466,3.199 -1.789,4.64 -0.49,2.141 -0.458,5.907 0,7.522 0.353,1.316 0.765,3.412 1.067,4.306 0.729,2.103 2.435,2.127 3.578,3.929 0.521,0.827 0.508,2.257 1.073,3.583 0.702,1.598 2.443,2.597 1.784,5.01 1.585,1.158 1.835,3.646 3.943,4.298 0.34,-1.666 -1.387,-3.127 -0.375,-4.298 1.344,0.367 1.305,1.791 1.796,2.49 0.223,0.31 0.866,0.424 1.084,0.731 0.24,0.314 0.114,0.727 0.352,1.076 0.702,1.005 1.888,1.562 2.147,2.854 0.139,0.667 -0.361,2.073 0,2.862 0.906,1.996 6.949,5.05 9.306,5.377 1.071,0.142 2.571,-0.323 3.571,0 0.942,0.282 1.716,1.785 3.239,2.497 1.364,0.654 3.409,0.499 4.283,1.06 1.637,1.086 1.904,3.112 2.869,3.945 0.551,0.498 1.396,0.691 2.146,1.079 1.983,1.024 2.929,1.917 4.657,0 l 0.348,0 c 0.773,1.497 2.056,2.599 1.797,5.01 -0.15,1.232 -1.046,1.81 -1.797,2.871 -0.551,0.767 -1.771,1.802 -2.147,2.855 -0.551,1.584 0.212,2.103 0,3.575 -0.151,1.024 -0.861,1.786 -0.715,2.503 0.194,0.97 2.009,2.584 2.862,3.941 0.965,1.545 1.914,3.638 2.507,4.652 0.533,0.922 1.047,2.421 1.434,2.859 2.068,2.366 5.374,2.438 6.44,5.362 1.436,3.966 -0.151,11.599 0,15.398 0.062,1.321 0.449,2.668 0.359,3.931 -0.131,1.733 -0.989,3.289 -1.081,5.015 -0.02,0.65 0.282,1.522 0.37,2.508 0.091,1.144 -0.158,2.489 0,3.571 0.121,0.972 0.645,1.552 0.711,2.517 0.191,3.299 -0.642,6.811 0,9.655 0.275,1.228 1.253,2.482 1.784,3.584 0.635,1.255 1.128,2.465 1.797,3.571 2.458,0.843 4.956,4.361 8.225,2.143 0.28,-1.23 -0.619,-1.917 -1.073,-2.508 -0.655,-0.855 -1.312,-1.118 -1.793,-2.143 -0.315,-0.672 -0.795,-1.624 -0.702,-2.854 0.086,-1.682 1.902,-2.872 1.785,-4.657 -0.103,-1.353 -1.555,-1.979 -1.446,-3.219 1.177,-1.816 2.297,-3.674 2.156,-6.801 1.736,-0.171 1.495,-2.327 2.509,-3.219 1.466,-0.551 3.278,-0.762 4.291,-1.787 0.424,-1.004 0.404,-2.478 0.365,-3.944 0.851,-0.444 2.164,-0.459 2.856,-1.07 1.314,-1.038 1.314,-2.668 2.147,-3.93 0.439,-0.68 1.363,-1.166 1.79,-1.801 0.504,-0.727 1.176,-1.791 1.439,-2.493 0.691,-1.945 -0.221,-2.849 0.701,-4.298 0.34,-0.541 1.102,-0.575 1.443,-0.717 0.107,-0.049 0.219,-0.635 0.353,-0.721 0.31,-0.192 0.812,-0.211 1.071,-0.353 0.42,-0.233 0.652,-0.541 1.074,-0.723 0.642,-0.252 1.935,-0.028 2.857,-0.711 1.917,-1.396 2.948,-5.377 3.23,-8.586 0.06,-0.702 -0.263,-2.084 0,-2.877 0.219,-0.665 1.454,-1.947 2.144,-2.85 0.87,-1.186 1.867,-1.815 2.138,-3.229 0.579,-2.858 -0.795,-3.02 -2.492,-4.297 z"
   id="path47"
   inkscape:connector-curvature="0" />
	<path
   style="fill:#e0e0e0"
   d="m 348.279,325.969 c -0.411,-2.284 -1.986,-2.844 -2.147,-5.003 -0.062,-0.772 0.493,-1.544 0.712,-2.502 0.243,-1.086 0.04,-2.11 0.374,-2.872 0.1,-0.258 0.801,-0.664 1.062,-1.074 0.353,-0.584 0.419,-1.403 0.702,-1.785 1.321,-1.706 3.921,-2.589 3.94,-4.643 -0.3,-0.771 -0.871,-1.274 -2.145,-1.094 -0.573,0.897 -1.064,1.402 -2.146,2.153 -1.853,1.302 -2.719,1.247 -3.934,3.219 -1.202,1.947 -1.064,3.447 -1.434,6.453 -0.23,1.907 -0.872,4.092 -0.711,4.64 0.512,1.717 3.433,3.271 5.727,2.508 z"
   id="path49"
   inkscape:connector-curvature="0" />
	<path
   style="fill:#e0e0e0"
   d="m 283.522,338.495 c -2.724,-0.669 -6.321,-0.019 -8.61,0 -0.41,2.054 0.153,4.708 2.147,5.37 3.269,1.094 8.564,-2.337 6.463,-5.37 z"
   id="path51"
   inkscape:connector-curvature="0" />
	<path
   style="fill:#e0e0e0"
   d="m 453.12,362.108 c -0.051,0.781 0.297,1.133 1.08,1.084 0.061,-0.781 -0.294,-1.146 -1.08,-1.084 z"
   id="path53"
   inkscape:connector-curvature="0" />
	<path
   style="fill:#e0e0e0"
   d="m 454.2,372.128 c 2.158,-0.818 4.573,-1.384 5.011,-3.931 -1.548,-0.713 -2.915,-1.614 -5.011,-1.786 0.1,2.054 -1.572,4.343 0,5.717 z"
   id="path55"
   inkscape:connector-curvature="0" />
	<path
   style="fill:#e0e0e0"
   d="m 452.777,380.359 c -0.652,0.804 -1.049,1.647 -1.804,2.15 -1.857,0.771 -4.144,1.981 -4.646,3.94 -0.36,1.411 -0.874,3.067 1.425,3.581 0.871,-0.687 0.653,-2.457 1.796,-2.864 1.525,-0.345 2.731,-1.176 3.941,-1.793 1.394,-0.709 2.688,-1.279 3.936,-2.147 -0.224,-4.077 1.071,-9.652 -2.859,-10.024 -0.511,1.716 0.427,3.501 0,5.015 -0.273,0.912 -1.273,1.492 -1.789,2.142 z"
   id="path57"
   inkscape:connector-curvature="0" />
	<path
   style="fill:#e0e0e0"
   d="m 306.76,380.359 c -0.532,0.545 -0.627,2.453 0.717,2.15 0.556,-0.545 0.643,-2.457 -0.717,-2.15 z"
   id="path59"
   inkscape:connector-curvature="0" />
	<path
   style="fill:#e0e0e0"
   d="m 312.505,385.729 c 1.213,0.156 2.023,-0.111 1.775,-1.429 -1.042,0.035 -2.016,0.127 -1.775,1.429 z"
   id="path61"
   inkscape:connector-curvature="0" />
	<path
   style="fill:#e0e0e0"
   d="m 437.373,400.041 c -0.513,0.519 -0.513,2.356 0,2.865 1.526,-0.046 1.583,-1.757 1.082,-2.865 -0.351,0 -0.71,0 -1.082,0 z"
   id="path63"
   inkscape:connector-curvature="0" />
	<path
   style="fill:#e0e0e0"
   d="m 211.216,407.201 c -0.35,-1.917 -2.326,-2.205 -4.29,-2.492 l 0,0.255 c -0.486,-0.201 -0.955,-0.416 -1.424,-0.57 l 0,-0.411 c 0.049,-0.591 -2.208,-0.591 -2.147,0 0.741,0.2 1.012,0.893 2.147,0.727 l 0,-0.298 1.424,0.563 0,0.434 c 0.692,1.222 2.344,3.002 4.29,1.792 z"
   id="path65"
   inkscape:connector-curvature="0" />
	<path
   style="fill:#e0e0e0"
   d="m 213.361,409.349 c 1.406,1.024 3.812,0.692 4.652,-0.717 -0.416,-1.736 -5.225,-2.375 -4.652,0.717 z"
   id="path67"
   inkscape:connector-curvature="0" />
	<path
   style="fill:#e0e0e0"
   d="m 439.889,408.632 c -3.84,-0.127 -1.823,5.897 -0.717,7.165 1.031,0.029 2.344,-0.203 2.874,0.338 -1.387,1.225 -0.188,3.043 0,4.308 0.139,1.009 -0.132,1.932 0,2.146 0.401,0.785 2.289,1.946 2.852,1.795 2.186,-0.555 1.57,-4.195 -0.361,-5.362 0.058,-0.887 0.058,-1.74 -0.353,-2.154 -1.153,-1.24 -2.916,-1.992 -3.571,-3.94 -0.474,-1.355 0.54,-3.09 -0.724,-4.296 z"
   id="path69"
   inkscape:connector-curvature="0" />
	<path
   style="fill:#e0e0e0"
   d="m 431.295,441.915 c 0.129,-1.509 -1.535,-2.371 -2.497,-2.498 -1.013,-0.151 -1.918,0.541 -2.857,0.365 -0.511,-0.127 -1.406,-0.565 -1.798,-0.737 -0.649,-0.258 -1.622,-0.33 -1.783,-1.071 0.01,-1.176 0.603,-1.78 0.35,-3.224 -1.266,-1.182 -1.944,-1.484 -2.5,-2.854 -0.732,-1.776 -0.388,-5.519 -1.068,-6.791 -0.62,-1.16 -2.468,-1.584 -3.229,-2.517 -0.405,-0.484 -0.491,-1.444 -0.712,-1.786 -0.437,-0.692 -0.662,-0.662 -1.076,-1.424 -0.092,-0.292 -0.298,-0.434 -0.713,-0.357 -1.654,3.495 3.45,4.732 1.789,8.234 -1.855,-0.414 -2.217,-2.331 -4.653,-2.15 -0.766,1.857 1.541,2.932 2.506,4.283 0.109,0.161 -0.092,0.541 0,0.712 0.04,0.121 0.622,0.23 0.709,0.347 0.111,0.172 -0.079,0.557 0,0.732 0.064,0.126 0.635,0.212 0.714,0.364 0.544,0.933 1.013,2.79 1.437,3.207 1.2,1.258 2.768,2.832 3.94,3.584 0.459,0.312 1.272,0.352 1.796,0.711 0.952,0.705 1.253,1.796 2.143,2.147 0.404,0.166 1.558,-0.181 2.497,0 0.657,0.137 1.248,0.662 1.788,0.723 1.158,0.131 2.066,-0.103 3.217,0 z"
   id="path71"
   inkscape:connector-curvature="0" />
	<path
   style="fill:#e0e0e0"
   d="m 434.164,423.662 c -2.453,2.441 -4.786,5.004 -8.224,6.438 -1.208,4.385 3.647,7.175 7.859,6.094 0.776,-1.86 2.499,-3.938 2.87,-5.747 0.183,-0.897 -0.43,-1.82 -0.365,-2.845 0.074,-1.155 1.059,-1.674 0.717,-2.871 -0.82,-0.479 -1.185,-1.432 -2.857,-1.069 z"
   id="path73"
   inkscape:connector-curvature="0" />
	<path
   style="fill:#e0e0e0"
   d="m 438.455,432.255 c -1.319,1.002 -1.392,3.894 -0.351,5.366 1.183,0 2.379,0 3.569,0 0.372,-1.126 -0.223,-2.995 0,-5.004 -0.577,-0.61 -2.103,-0.293 -3.218,-0.362 z"
   id="path75"
   inkscape:connector-curvature="0" />
	<path
   style="fill:#e0e0e0"
   d="m 464.22,434.75 c -1.782,-0.625 -3.601,-1.195 -5.009,-1.059 -0.938,0.07 -1.786,0.883 -2.853,0.701 -0.7,-0.625 -1.032,-1.609 -1.793,-2.138 -0.958,0 -2.059,-0.142 -2.507,0.362 0.342,1.513 0.729,2.713 1.785,3.576 0.407,0.327 1.242,0.131 1.783,0.345 0.57,0.241 0.972,0.855 1.443,1.083 0.654,0.323 1.252,0.035 1.783,0.353 1.168,0.702 1.015,2.229 1.436,3.594 1.746,0.407 2.768,1.63 4.643,1.416 1.305,-0.137 1.799,-1.595 3.225,-1.416 1.892,0.604 2.043,2.951 5.022,2.492 0.56,-1.745 -2.396,-2.774 -2.156,-5.364 -2.084,-1.532 -3.902,-2.899 -6.802,-3.945 z"
   id="path77"
   inkscape:connector-curvature="0" />
	<path
   style="fill:#e0e0e0"
   d="m 472.097,459.804 c -0.334,-0.596 -0.37,-1.654 -0.715,-2.144 -0.783,-1.106 -1.896,-1.575 -2.509,-2.871 -1.102,-2.285 -0.99,-4.874 -2.143,-6.074 -0.823,-0.854 -0.787,-2.387 -2.147,-2.508 -2.066,1.161 -0.753,5.702 -2.867,6.801 -2.228,-0.401 -3.832,-1.416 -4.646,-3.224 0.312,-0.873 0.834,-1.548 0.702,-2.854 -2.036,-1.024 -4.165,-1.775 -6.079,-1.074 -1.865,0.669 -1.967,3.239 -3.941,3.571 -0.78,-0.283 -1.381,-0.762 -2.495,-0.712 -1.797,1.19 -2.71,3.254 -5.014,3.931 -1.146,5.528 -8.309,2.942 -10.731,6.8 -0.886,1.402 -1.106,4.021 -1.076,5.728 0.049,2.416 1.232,4.833 1.076,7.521 -0.079,1.23 -1.126,2.446 -0.714,3.929 0.511,0.209 0.87,0.556 1.073,1.076 1.812,0.625 3.378,-1.105 5.354,-1.438 0.813,-0.127 1.935,0.283 2.879,0 1.072,-0.337 1.896,-1.409 2.851,-1.781 0.893,-0.342 2.222,-0.539 3.229,-0.721 4.395,-0.791 6.527,0 7.51,3.576 1.617,0.769 2.803,1.687 3.568,3.234 0.604,1.16 0.475,2.326 1.097,3.566 1.374,1.594 4.583,1.379 6.791,2.15 0.87,-1.025 2.697,-1.127 3.94,-1.786 1.126,-1.116 1.014,-2.557 1.783,-3.931 0.084,-0.142 0.605,-0.211 0.722,-0.362 0.203,-0.283 0.193,-0.823 0.347,-1.074 0.399,-0.602 0.739,-1.302 1.081,-1.798 0.799,-1.129 1.944,-1.791 2.498,-2.855 0.2,-0.369 0.28,-1.18 0.359,-1.433 0.475,-1.396 1.288,-3.21 1.443,-4.645 0.438,-4.073 -1.102,-5.439 -2.515,-7.882 -0.18,-0.323 -0.573,-0.474 -0.711,-0.716 z"
   id="path79"
   inkscape:connector-curvature="0" />
	<path
   style="fill:#e0e0e0"
   d="m 354.368,446.567 c -1.096,0.771 -1.305,1.946 -2.505,2.859 -0.636,0.488 -1.659,0.357 -2.15,0.722 -1.711,1.221 -1.022,2.679 -1.434,5.005 -0.173,0.962 -0.969,1.714 -1.062,2.854 -0.173,1.712 -0.031,2.649 1.062,3.95 3.901,0.796 4.784,-3.526 5.727,-6.083 1.052,-2.867 2.872,-6.731 1.436,-9.308 -0.372,0.001 -0.731,0.001 -1.074,0.001 z"
   id="path81"
   inkscape:connector-curvature="0" />
	<path
   style="fill:#e0e0e0"
   d="m 496.427,484.862 -0.712,0 c 0.201,3.526 -2.59,4.102 -1.796,8.224 -1.073,0 -2.135,0 -3.217,0 -1.047,1.111 -1.912,2.518 -3.212,3.576 -2.348,1.917 -6.748,2.599 -5.377,6.803 3.671,1.674 4.774,-2.579 6.079,-3.931 0.174,-0.171 0.905,-0.243 1.084,-0.357 0.582,-0.394 0.799,-0.858 1.062,-1.438 0.05,-0.102 0.63,-0.248 0.724,-0.354 0.971,-1.171 1.773,-2.209 2.505,-3.229 1.364,-0.147 2.582,-1.045 3.22,-1.786 0.374,-0.419 0.412,-1.05 0.714,-1.422 1.144,-1.393 1.846,-1.331 1.795,-2.517 -0.092,-1.658 -2.046,-1.917 -2.869,-3.569 z"
   id="path83"
   inkscape:connector-curvature="0" />
	<path
   style="fill:#e0e0e0"
   d="m 460.289,489.505 c -1.078,1.004 -1.545,3.768 -0.359,5.015 2.718,0.102 3.69,-1.565 3.582,-4.289 -1.026,-0.307 -2.219,-0.434 -3.223,-0.726 z"
   id="path85"
   inkscape:connector-curvature="0" />
</g>


<g
   id="colorangle">
	<g
   id="g88">
		<radialGradient
   id="SVGID_1_"
   cx="106.8687"
   cy="360.1709"
   r="80.393799"
   gradientUnits="userSpaceOnUse">
			<stop
   offset="0"
   style="stop-color:#FFCE4E"
   id="stop91" />
			<stop
   offset="1"
   style="stop-color:#F5C337"
   id="stop93" />
		</radialGradient>
		<path
   style="fill:url(#SVGID_1_)"
   d="m 133.117,404.787 -15.423,25.619 7.789,0 c 1.844,0 4.134,-1.293 5.085,-2.881 l 6.562,-10.918 c 0.774,-1.602 0.748,-3.93 -0.138,-5.406 l -3.875,-6.414 z"
   id="path95"
   inkscape:connector-curvature="0" />
		<radialGradient
   id="SVGID_2_"
   cx="106.8701"
   cy="360.17191"
   r="80.391998"
   gradientUnits="userSpaceOnUse">
			<stop
   offset="0"
   style="stop-color:#0DA960"
   id="stop98" />
			<stop
   offset="1"
   style="stop-color:#05924B"
   id="stop100" />
		</radialGradient>
		<path
   style="fill:url(#SVGID_2_)"
   d="m 126.067,393.117 c 0.951,1.582 0.951,4.174 0,5.762 l -17.322,28.961 c -0.669,1.432 0.026,2.566 1.745,2.566 l 7.204,0 15.423,-25.619 -7.05,-11.67 z"
   id="path102"
   inkscape:connector-curvature="0" />
		<radialGradient
   id="SVGID_3_"
   cx="106.8687"
   cy="360.17331"
   r="80.390297"
   gradientUnits="userSpaceOnUse">
			<stop
   offset="0"
   style="stop-color:#577EC0"
   id="stop105" />
			<stop
   offset="1"
   style="stop-color:#557EBF"
   id="stop107" />
		</radialGradient>
		<path
   style="fill:url(#SVGID_3_)"
   d="m 110.49,361.584 c -1.851,0 -2.585,1.299 -1.634,2.881 l 28.136,46.736 c 0.886,1.477 0.912,3.805 0.138,5.406 l 6.84,-11.385 -26.271,-43.639 -7.209,0 z"
   id="path109"
   inkscape:connector-curvature="0" />
		<radialGradient
   id="SVGID_4_"
   cx="106.8711"
   cy="360.17331"
   r="80.385902"
   gradientUnits="userSpaceOnUse">
			<stop
   offset="0"
   style="stop-color:#E04B3F"
   id="stop112" />
			<stop
   offset="1"
   style="stop-color:#CD382D"
   id="stop114" />
		</radialGradient>
		<path
   style="fill:url(#SVGID_4_)"
   d="m 147.778,393.117 -17.21,-28.652 c -0.951,-1.582 -3.241,-2.881 -5.085,-2.881 l -7.785,0 26.271,43.639 3.809,-6.344 c 0.952,-1.588 0.952,-4.18 0,-5.762 z"
   id="path116"
   inkscape:connector-curvature="0" />
		<linearGradient
   id="SVGID_5_"
   gradientUnits="userSpaceOnUse"
   x1="141.16991"
   y1="404.8623"
   x2="121.8034"
   y2="404.8623">
			<stop
   offset="0"
   style="stop-color:#231F20;stop-opacity:0.2"
   id="stop119" />
			<stop
   offset="1"
   style="stop-color:#F2F2F2;stop-opacity:0.25"
   id="stop121" />
		</linearGradient>
		<path
   style="fill:url(#SVGID_5_)"
   d="m 136.992,411.201 -10.925,-18.084 c 0.951,1.582 0.951,4.174 0,5.762 l -3.846,6.404 14.908,11.324 c 0.775,-1.601 0.749,-3.929 -0.137,-5.406 z"
   id="path123"
   inkscape:connector-curvature="0" />
	</g>
        <g
   id="g125">
	  <radialGradient
   id="SVGID_6_"
   cx="128.46581"
   cy="395.99509"
   r="28.153"
   gradientUnits="userSpaceOnUse">
	    <stop
   offset="0"
   style="stop-color:#FFFFFF;stop-opacity:0.1"
   id="stop128" />
	    <stop
   offset="0.0896"
   style="stop-color:#FFFFFF;stop-opacity:0.091"
   id="stop130" />
	    <stop
   offset="1"
   style="stop-color:#FFFFFF;stop-opacity:0"
   id="stop132" />
	  </radialGradient>
	  <path
   style="fill:url(#SVGID_6_)"
   d="m 147.778,393.117 -17.21,-28.652 c -0.951,-1.582 -3.241,-2.881 -5.085,-2.881 l -7.785,0 -7.208,0 c -1.851,0 -2.585,1.299 -1.634,2.881 l 17.211,28.652 c 0.951,1.582 0.951,4.174 0,5.762 l -17.322,28.961 c -0.669,1.432 0.026,2.566 1.745,2.566 l 7.204,0 7.789,0 c 1.844,0 4.134,-1.293 5.085,-2.881 l 13.401,-22.303 3.809,-6.344 c 0.952,-1.587 0.952,-4.179 0,-5.761 z"
   id="path134"
   inkscape:connector-curvature="0" />
        </g>
</g>


<text
   id="title"
   transform="translate(284.1201,412.0566)"
   style="font-weight:600;font-size:46px;font-family:'Open Sans';letter-spacing:-2;fill:#4d4d4d"
   editable="simple">Warsaw</text>






<g
   id="GDG"
   style="fill:#4d4d4d">
	<g
   id="g138">
		<path
   d="M 239.128,407.537"
   id="path140"
   inkscape:connector-curvature="0" />
		<path
   d="m 179.832,393.201 14.084,0 0,17.604 c -3.826,1.312 -8.025,1.963 -12.617,1.963 -5.026,0 -8.913,-1.457 -11.663,-4.373 -2.751,-2.916 -4.117,-7.084 -4.117,-12.492 0,-5.264 1.499,-9.359 4.51,-12.295 3.008,-2.938 7.218,-4.385 12.637,-4.385 2.057,0 3.99,0.186 5.81,0.578 1.833,0.383 3.425,0.869 4.78,1.459 l -2.804,6.918 c -2.348,-1.16 -4.932,-1.738 -7.746,-1.738 -2.564,0 -4.56,0.848 -5.966,2.514 -1.417,1.676 -2.109,4.062 -2.109,7.178 0,3.051 0.63,5.377 1.913,6.979 1.261,1.604 3.091,2.391 5.491,2.391 1.313,0 2.522,-0.115 3.618,-0.375 l 0,-5.107 -5.82,0 0,-6.819 z"
   id="path142"
   inkscape:connector-curvature="0" />
		<path
   d="m 217.286,395.623 c 0,-3 -0.589,-5.213 -1.768,-6.66 -1.18,-1.438 -2.989,-2.162 -5.397,-2.162 l -2.565,0 0,18.285 1.966,0 c 2.688,0 4.652,-0.777 5.894,-2.338 1.251,-1.541 1.87,-3.93 1.87,-7.125 m 9.152,-0.311 c 0,5.439 -1.488,9.639 -4.497,12.586 -2.989,2.947 -7.207,4.416 -12.637,4.416 l -10.558,0 0,-32.639 11.292,0 c 5.231,0 9.276,1.346 12.129,4.023 2.854,2.671 4.271,6.548 4.271,11.614"
   id="path144"
   inkscape:connector-curvature="0" />
		<path
   d="m 243.563,393.201 14.096,0 0,17.604 c -3.827,1.312 -8.035,1.963 -12.616,1.963 -5.026,0 -8.915,-1.457 -11.666,-4.373 -2.74,-2.916 -4.114,-7.084 -4.114,-12.492 0,-5.264 1.498,-9.359 4.507,-12.295 3,-2.938 7.218,-4.385 12.638,-4.385 2.048,0 3.992,0.186 5.822,0.578 1.81,0.383 3.403,0.869 4.756,1.459 l -2.79,6.918 c -2.348,-1.16 -4.935,-1.738 -7.746,-1.738 -2.576,0 -4.561,0.848 -5.977,2.514 -1.397,1.676 -2.101,4.062 -2.101,7.178 0,3.051 0.631,5.377 1.902,6.979 1.272,1.604 3.103,2.391 5.501,2.391 1.313,0 2.525,-0.115 3.621,-0.375 l 0,-5.107 -5.833,0 0,-6.819 z"
   id="path146"
   inkscape:connector-curvature="0" />
	</g>
</g>


</g>
<flowRoot
   xml:space="preserve"
   id="flowRoot4187"
   style="font-style:normal;font-weight:normal;font-size:40px;line-height:125%;font-family:Sans;letter-spacing:0px;word-spacing:0px;fill:#000000;fill-opacity:1;stroke:none;stroke-width:1px;stroke-linecap:butt;stroke-linejoin:miter;stroke-opacity:1"
   transform="translate(-1686.2811,535.1471)"><flowRegion
     id="flowRegion4189"><rect
       id="rect4191"
       width="199.47952"
       height="42.745609"
       x="389.73938"
       y="-1084.9768" /></flowRegion><flowPara
     id="flowPara4193" /></flowRoot><g
   id="g4569"
   inkscape:export-xdpi="89.709999"
   inkscape:export-ydpi="89.709999"
   transform="translate(-0.24736497,2.721704)"><g
     transform="matrix(0.98585427,0,0,0.98585427,2.1392151,2.0132466)"
     id="g4447"><rect
       y="82.803055"
       x="-0.36815229"
       height="62.937397"
       width="403.67883"
       id="rect3040"
       style="fill:url(#linearGradient4147);fill-opacity:1;fill-rule:evenodd;stroke:#000000;stroke-width:0.16286746px;stroke-linecap:butt;stroke-linejoin:miter;stroke-opacity:1"
       inkscape:export-filename="C:\Users\admin\projects\golang-warsaw\golang-warsaw.png"
       inkscape:export-xdpi="89.959999"
       inkscape:export-ydpi="89.959999" /><g
       id="g4093"
       transform="matrix(0.36327946,0,0,0.36327946,102.11558,513.83097)"
       style="fill:url(#linearGradient4119);fill-opacity:1"><path
         id="path4340"
         sodipodi:rx="252.14417"
         sodipodi:ry="252.14417"
         style="opacity:0.98999999;fill:url(#linearGradient3612);fill-opacity:1"
         sodipodi:type="arc"
         d="m 342.47645,188.55723 a 252.14417,252.14417 0 0 1 55.56775,0.412 l -29.64195,250.39576 z"
         inkscape:transform-center-x="-8.6351025"
         inkscape:transform-center-y="-424.61011"
         transform="matrix(0.63350123,0,0,0.63350123,339.74624,-1299.2047)"
         sodipodi:cy="439.36499"
         sodipodi:cx="368.40225"
         sodipodi:end="4.830221"
         sodipodi:start="4.6093856" /><path
         id="path4354"
         sodipodi:rx="252.14417"
         sodipodi:ry="252.14417"
         style="opacity:0.98999999;fill:url(#linearGradient3614);fill-opacity:1"
         sodipodi:type="arc"
         d="m 342.47645,188.55723 a 252.14417,252.14417 0 0 1 55.56775,0.412 l -29.64195,250.39576 z"
         inkscape:transform-center-x="-209.77198"
         inkscape:transform-center-y="-405.97587"
         transform="matrix(0.58521745,0.24258508,-0.24258508,0.58521745,464.08026,-1367.1857)"
         sodipodi:cy="439.36499"
         sodipodi:cx="368.40225"
         sodipodi:end="4.830221"
         sodipodi:start="4.6093856" /><path
         id="path4356"
         sodipodi:rx="252.14417"
         sodipodi:ry="252.14417"
         style="opacity:0.98999999;fill:url(#linearGradient3616);fill-opacity:1"
         sodipodi:type="arc"
         d="m 342.47645,188.55723 a 252.14417,252.14417 0 0 1 55.56775,0.412 l -29.64195,250.39576 z"
         inkscape:transform-center-x="-333.71543"
         inkscape:transform-center-y="-329.30415"
         transform="matrix(0.45037273,0.44550109,-0.44550109,0.45037273,602.82041,-1382.5624)"
         sodipodi:cy="439.36499"
         sodipodi:cx="368.40225"
         sodipodi:end="4.830221"
         sodipodi:start="4.6093856" /><path
         id="path4358"
         sodipodi:rx="252.14417"
         sodipodi:ry="252.14417"
         style="opacity:0.98999999;fill:url(#linearGradient3618);fill-opacity:1"
         sodipodi:type="arc"
         d="m 342.47645,188.55723 a 252.14417,252.14417 0 0 1 55.56775,0.412 l -29.64195,250.39576 z"
         inkscape:transform-center-x="-404.50456"
         inkscape:transform-center-y="-215.22393"
         transform="matrix(0.26664232,0.57464656,-0.57464656,0.26664232,727.12246,-1349.3205)"
         sodipodi:cy="439.36499"
         sodipodi:cx="368.40225"
         sodipodi:end="4.830221"
         sodipodi:start="4.6093856" /><path
         id="path4360"
         sodipodi:rx="252.14417"
         sodipodi:ry="252.14417"
         style="opacity:0.98999999;fill:url(#linearGradient3620);fill-opacity:1"
         sodipodi:type="arc"
         d="m 342.47645,188.55723 a 252.14417,252.14417 0 0 1 55.56775,0.412 l -29.64195,250.39576 z"
         inkscape:transform-center-x="-424.89427"
         inkscape:transform-center-y="-91.722105"
         transform="matrix(0.07610479,0.62891173,-0.62891173,0.07610479,821.01908,-1285.5528)"
         sodipodi:cy="439.36499"
         sodipodi:cx="368.40225"
         sodipodi:end="4.830221"
         sodipodi:start="4.6093856" /><path
         id="path4362"
         sodipodi:rx="252.14417"
         sodipodi:ry="252.14417"
         style="opacity:0.98999999;fill:url(#linearGradient3622);fill-opacity:1"
         sodipodi:type="arc"
         d="m 342.47645,188.55723 a 252.14417,252.14417 0 0 1 55.56775,0.412 l -29.64195,250.39576 z"
         inkscape:transform-center-x="424.368"
         inkscape:transform-center-y="-94.548388"
         transform="matrix(0.06451819,-0.63020958,0.63020958,0.06451819,272.06619,-816.73743)"
         sodipodi:cy="439.36499"
         sodipodi:cx="368.40225"
         sodipodi:end="4.830221"
         sodipodi:start="4.6093856" /><path
         id="path4364"
         sodipodi:rx="252.14417"
         sodipodi:ry="252.14417"
         style="opacity:0.98999999;fill:url(#linearGradient3624);fill-opacity:1"
         sodipodi:type="arc"
         d="m 342.47645,188.55723 a 252.14417,252.14417 0 0 1 55.56775,0.412 l -29.64195,250.39576 z"
         inkscape:transform-center-x="401.37977"
         inkscape:transform-center-y="-222.63317"
         transform="matrix(0.26301211,-0.5763206,0.5763206,0.26301211,222.7667,-923.76303)"
         sodipodi:cy="439.36499"
         sodipodi:cx="368.40225"
         sodipodi:end="4.830221"
         sodipodi:start="4.6093856" /><path
         id="path4366"
         sodipodi:rx="252.14417"
         sodipodi:ry="252.14417"
         style="opacity:0.98999999;fill:url(#linearGradient3626);fill-opacity:1"
         sodipodi:type="arc"
         d="m 342.47645,188.55723 a 252.14417,252.14417 0 0 1 55.56775,0.412 l -29.64195,250.39576 z"
         inkscape:transform-center-x="324.05481"
         inkscape:transform-center-y="-338.74962"
         transform="matrix(0.45415342,-0.44166397,0.44166397,0.45415342,211.63152,-1057.2572)"
         sodipodi:cy="439.36499"
         sodipodi:cx="368.40225"
         sodipodi:end="4.830221"
         sodipodi:start="4.6093856" /><path
         id="path4368"
         sodipodi:rx="252.14417"
         sodipodi:ry="252.14417"
         style="opacity:0.98999999;fill:url(#linearGradient3628);fill-opacity:1"
         sodipodi:type="arc"
         d="m 342.47645,188.55723 a 252.14417,252.14417 0 0 1 55.56775,0.412 l -29.64195,250.39576 z"
         inkscape:transform-center-x="206.72015"
         inkscape:transform-center-y="-407.40003"
         transform="matrix(0.58064676,-0.25330645,0.25330645,0.58064676,247.87727,-1182.0932)"
         sodipodi:cy="439.36499"
         sodipodi:cx="368.40225"
         sodipodi:end="4.830221"
         sodipodi:start="4.6093856" /><path
         id="path4370"
         sodipodi:rx="252.14417"
         sodipodi:ry="252.14417"
         style="opacity:0.98999999;fill:url(#linearGradient3630);fill-opacity:1"
         sodipodi:type="arc"
         d="M 305.50179,683.53749 A 252.14417,252.14417 0 0 1 124.06107,377.123 252.14417,252.14417 0 0 1 429.98532,194.8569 l -61.58307,244.50809 z"
         inkscape:transform-center-x="-142.87199"
         inkscape:transform-center-y="-69.258542"
         transform="matrix(0.0545887,0.20620766,-0.20620766,0.0545887,644.61494,-1120.2951)"
         sodipodi:cy="439.36499"
         sodipodi:cx="368.40225"
         sodipodi:end="4.9591223"
         sodipodi:start="1.8229213" /></g><path
       style="clip-rule:evenodd;fill:#f6d2a2;fill-rule:evenodd;stroke:#000000;stroke-width:0.32614744;stroke-linecap:round"
       inkscape:connector-curvature="0"
       d="m 75.104329,135.37781 c -0.08306,1.71237 -1.793701,0.92004 -2.568518,0.38474 -0.735463,-0.50826 -0.950504,-0.0857 -1.015081,-1.08881 -0.04229,-0.65924 -0.118283,-1.31851 -0.08088,-1.98034 1.112159,-0.1008 2.321842,0.16402 3.233641,0.82644 0.46965,0.34124 1.350252,1.43048 0.43084,1.85797"
       id="path3"
       inkscape:export-filename="C:\Users\admin\projects\golang-warsaw\golang-warsaw.png"
       inkscape:export-xdpi="89.959999"
       inkscape:export-ydpi="89.959999" /><path
       style="clip-rule:evenodd;fill:#c6b198;fill-rule:evenodd;stroke:#000000;stroke-width:0.32614744;stroke-linecap:round"
       inkscape:connector-curvature="0"
       d="m 75.104329,135.37781 c -0.24896,-0.0926 -0.512812,-0.15843 -0.681756,-0.38357"
       id="path5"
       inkscape:export-filename="C:\Users\admin\projects\golang-warsaw\golang-warsaw.png"
       inkscape:export-xdpi="89.959999"
       inkscape:export-ydpi="89.959999" /><path
       style="clip-rule:evenodd;fill:#6ad7e5;fill-rule:evenodd;stroke:#000000;stroke-width:0.32614744;stroke-linecap:round"
       inkscape:connector-curvature="0"
       d="m 71.151097,114.97838 c 6.555238,-1.84342 1.680856,-10.18279 -3.583165,-6.7527 l 3.583165,6.7527 z"
       id="path7"
       inkscape:export-filename="C:\Users\admin\projects\golang-warsaw\golang-warsaw.png"
       inkscape:export-xdpi="89.959999"
       inkscape:export-ydpi="89.959999" /><path
       style="clip-rule:evenodd;fill:#6ad7e5;fill-rule:evenodd;stroke:#000000;stroke-width:0.32614744;stroke-linecap:round"
       inkscape:connector-curvature="0"
       d="m 42.026351,107.59994 c -5.188679,-3.64451 -9.877484,4.57813 -3.847236,6.64698 l 3.847236,-6.64698 z"
       id="path9"
       inkscape:export-filename="C:\Users\admin\projects\golang-warsaw\golang-warsaw.png"
       inkscape:export-xdpi="89.959999"
       inkscape:export-ydpi="89.959999" /><path
       style="clip-rule:evenodd;fill-rule:evenodd"
       inkscape:connector-curvature="0"
       d="m 70.87757,112.67509 c 0.864832,-0.45747 1.499296,-1.07876 0.970289,-2.07907 -0.489768,-0.92602 -1.399611,-0.82548 -2.264551,-0.368 l 1.294262,2.44707 z"
       id="path19"
       inkscape:export-filename="C:\Users\admin\projects\golang-warsaw\golang-warsaw.png"
       inkscape:export-xdpi="89.959999"
       inkscape:export-ydpi="89.959999" /><path
       style="clip-rule:evenodd;fill-rule:evenodd"
       inkscape:connector-curvature="0"
       d="m 39.545349,111.8054 c -0.864836,-0.45748 -1.499302,-1.0788 -0.97029,-2.07911 0.489765,-0.92602 1.399608,-0.82548 2.264548,-0.368 l -1.294258,2.44711 z"
       id="path21"
       inkscape:export-filename="C:\Users\admin\projects\golang-warsaw\golang-warsaw.png"
       inkscape:export-xdpi="89.959999"
       inkscape:export-ydpi="89.959999" /><path
       style="clip-rule:evenodd;fill:#f6d2a2;fill-rule:evenodd;stroke:#000000;stroke-width:0.32614744;stroke-linecap:round"
       inkscape:connector-curvature="0"
       d="m 33.592178,135.16037 c 0.08306,1.71236 1.793702,0.92003 2.568519,0.38473 0.735463,-0.50825 0.950503,-0.0858 1.015081,-1.08877 0.04229,-0.65927 0.118282,-1.3185 0.08088,-1.98038 -1.112162,-0.10079 -2.321843,0.16406 -3.233643,0.82645 -0.469543,0.34129 -1.35025,1.43048 -0.430841,1.85797"
       id="path23-4"
       inkscape:export-filename="C:\Users\admin\projects\golang-warsaw\golang-warsaw.png"
       inkscape:export-xdpi="89.959999"
       inkscape:export-ydpi="89.959999" /><path
       style="clip-rule:evenodd;fill:#c6b198;fill-rule:evenodd;stroke:#000000;stroke-width:0.32614744;stroke-linecap:round"
       inkscape:connector-curvature="0"
       d="m 33.592178,135.16037 c 0.24896,-0.0926 0.512813,-0.15839 0.681757,-0.38358"
       id="path25-4"
       inkscape:export-filename="C:\Users\admin\projects\golang-warsaw\golang-warsaw.png"
       inkscape:export-xdpi="89.959999"
       inkscape:export-ydpi="89.959999" /><g
       id="g27"
       transform="matrix(-0.10871581,0,0,0.10871581,76.260413,102.70945)"
       inkscape:export-filename="C:\Users\admin\projects\golang-warsaw\golang-warsaw.png"
       inkscape:export-xdpi="89.959999"
       inkscape:export-ydpi="89.959999">
	<path
   sodipodi:nodetypes="cccccccc"
   style="clip-rule:evenodd;fill:#6ad7e5;fill-rule:evenodd;stroke:#000000;stroke-width:3;stroke-linecap:round"
   inkscape:connector-curvature="0"
   d="m 195.512,13.124 c 60.365,0 116.953,8.633 146.452,66.629 26.478,65.006 17.062,135.104 21.1,203.806 4.14106,38.66331 2.02209,72.88957 -4.82708,102.55508 -47.40691,0.86927 -166.14823,6.9314 -312.985917,-33.57483 C 43.397519,335.11355 42.847443,316.34662 43.792,296.223 46.444,230.452 25.977,164.481 47.584,100.122 69.999,33.359 130.451,18.271 195.512,13.124"
   id="path29-4" />
</g><path
       style="clip-rule:evenodd;fill:#ffffff;fill-rule:evenodd;stroke:#000000;stroke-width:0.31615642;stroke-linecap:round"
       inkscape:connector-curvature="0"
       d="m 53.846586,112.94612 c -1.178262,6.84945 -12.374251,5.03843 -10.766129,-1.86957 1.442009,-6.19464 11.157721,-4.47995 10.766129,1.86957"
       id="path31-3"
       inkscape:export-filename="C:\Users\admin\projects\golang-warsaw\golang-warsaw.png"
       inkscape:export-xdpi="89.959999"
       inkscape:export-ydpi="89.959999" /><path
       style="clip-rule:evenodd;fill:#ffffff;fill-rule:evenodd;stroke:#000000;stroke-width:0.30673075;stroke-linecap:round"
       inkscape:connector-curvature="0"
       d="m 67.225802,114.05396 c -1.527127,5.96306 -11.074226,4.43636 -10.714374,-1.5452 0.431164,-7.16382 12.17443,-5.7815 10.714374,1.5452"
       id="path33-4"
       inkscape:export-filename="C:\Users\admin\projects\golang-warsaw\golang-warsaw.png"
       inkscape:export-xdpi="89.959999"
       inkscape:export-ydpi="89.959999" /><path
       style="clip-rule:evenodd;fill:#ffffff;fill-rule:evenodd;stroke:#000000;stroke-width:0.32614744;stroke-linecap:round"
       inkscape:connector-curvature="0"
       d="m 52.49579,121.16527 c -0.005,0.89047 -0.20232,1.89023 -0.03391,2.83758 0.227325,0.42967 0.673276,0.4751 1.057695,0.64871 0.53162,-0.0834 0.97866,-0.43245 1.191851,-0.92972 0.136439,-1.08129 -0.05087,-2.12825 -0.08534,-3.20995 l -2.130286,0.65338 z"
       id="path35-0"
       inkscape:export-filename="C:\Users\admin\projects\golang-warsaw\golang-warsaw.png"
       inkscape:export-xdpi="89.959999"
       inkscape:export-ydpi="89.959999" /><g
       id="g37"
       transform="matrix(-0.10871581,0,0,0.10871581,76.260413,102.70945)"
       inkscape:export-filename="C:\Users\admin\projects\golang-warsaw\golang-warsaw.png"
       inkscape:export-xdpi="89.959999"
       inkscape:export-ydpi="89.959999">
	<path
   inkscape:connector-curvature="0"
   id="ellipse39"
   d="m 122.153,95.403999 c 0,8.870801 -6.63917,16.062001 -14.829,16.062001 -8.189833,0 -14.829003,-7.1912 -14.829003,-16.062001 0,-8.870797 6.63917,-16.062 14.829003,-16.062 8.18983,0 14.829,7.191203 14.829,16.062 z"
   style="fill-rule:evenodd" />
	<path
   inkscape:connector-curvature="0"
   id="ellipse41"
   d="m 117.565,99.028999 c 0,2.254431 -1.56521,4.082001 -3.496,4.082001 -1.93079,0 -3.496,-1.82757 -3.496,-4.082001 0,-2.254426 1.56521,-4.081999 3.496,-4.081999 1.93079,0 3.496,1.827573 3.496,4.081999 z"
   style="fill:#ffffff;fill-rule:evenodd" />
</g><g
       id="g43"
       transform="matrix(-0.10871581,0,0,0.10871581,76.260413,102.70945)"
       inkscape:export-filename="C:\Users\admin\projects\golang-warsaw\golang-warsaw.png"
       inkscape:export-xdpi="89.959999"
       inkscape:export-ydpi="89.959999">
	<path
   inkscape:connector-curvature="0"
   id="ellipse45"
   d="m 246.153,91.403999 c 0,8.870801 -6.52858,16.062001 -14.582,16.062001 -8.05342,0 -14.582,-7.1912 -14.582,-16.062001 0,-8.870797 6.52858,-16.062 14.582,-16.062 8.05342,0 14.582,7.191203 14.582,16.062 z"
   style="fill-rule:evenodd" />
	<path
   inkscape:connector-curvature="0"
   id="ellipse47"
   d="m 241.64199,95.028999 c 0,2.254427 -1.53924,4.082 -3.438,4.082 -1.89875,0 -3.438,-1.827573 -3.438,-4.082 0,-2.254426 1.53925,-4.081999 3.438,-4.081999 1.89876,0 3.438,1.827573 3.438,4.081999 z"
   style="fill:#ffffff;fill-rule:evenodd" />
</g><path
       style="clip-rule:evenodd;fill:#ffffff;fill-rule:evenodd;stroke:#000000;stroke-width:0.32614744;stroke-linecap:round"
       inkscape:connector-curvature="0"
       d="m 57.102841,121.06831 c 0.703392,1.70463 -0.392247,5.11343 -2.300753,2.59914 0.13644,-1.08129 -0.05088,-2.1282 -0.08534,-3.20991 l 2.386094,0.61077 z"
       id="path49-3"
       inkscape:export-filename="C:\Users\admin\projects\golang-warsaw\golang-warsaw.png"
       inkscape:export-xdpi="89.959999"
       inkscape:export-ydpi="89.959999" /><g
       id="g51"
       transform="matrix(-0.10871581,0,0,0.10871581,76.260413,102.70945)"
       inkscape:export-filename="C:\Users\admin\projects\golang-warsaw\golang-warsaw.png"
       inkscape:export-xdpi="89.959999"
       inkscape:export-ydpi="89.959999">
	<path
   style="clip-rule:evenodd;fill:#f6d2a2;fill-rule:evenodd;stroke:#231f20;stroke-width:3;stroke-linecap:round"
   inkscape:connector-curvature="0"
   d="m 178.431,138.673 c -12.059,1.028 -21.916,15.366 -15.646,26.709 8.303,15.024 26.836,-1.329 38.379,0.203 13.285,0.272 24.17,14.047 34.84,2.49 11.867,-12.854 -5.109,-25.373 -18.377,-30.97 l -39.196,1.568 z"
   id="path53-8" />
	<path
   style="clip-rule:evenodd;fill-rule:evenodd"
   inkscape:connector-curvature="0"
   d="m 176.913,138.045 c -0.893,-20.891 38.938,-23.503 43.642,-6.016 4.692,17.446 -41.681,21.498 -43.642,6.016 -1.565,-12.363 0,0 0,0 z"
   id="path55-4" />
</g><path
       sodipodi:nodetypes="ccccccccccccccccccccccccccccccccccccccccccccccccccccccccccccccccccccccccccccccccccccccccccccccccccccccccccccccccccccccccccccccccccccccccccccccccccccccccccccccccccccccccccccccccccccccccccccccccccccccccccccccccccccccccccccscccccccccccccccccccccccccccccccccccccccccccccccccccccccccccccccccccccccccccccccccccccccccccccccccccccccccccccccccccccccccccccccccccccccccccccccccccccccccccccccccccccccccccccccccccccccccccccccccccccccccccccccccccccccccccccccccccccccccccccccccccccccccccsccccccccccccccccccccccccccccccccccccccccccccccccccccccccccccccccccccccccccccccccccccccccccccccccccccccccccccccccccccccccccccccccccccccccccccccccccccccccccccccccccccccccccccccccccccccccccccccccccccccccccccccccccscccccccccccccccccccccccccccccccccccccccccccccccccccccccccccccccccccccccccccccccccccccccccccccccccccccccccccccccccccccccccccccccccccccc"
       inkscape:connector-curvature="0"
       id="path3856"
       d="m -0.11435426,145.68178 0.20503843,-16.2357 1.28891553,-0.0294 0.058583,-0.11716 -0.2636494,-0.52727 1.81619,0.0879 -0.2343465,-0.79098 1.6697338,0 0.3515155,0.32227 0.9959867,0 0.6151353,-0.4101 0.2929576,0.0294 -0.1171733,0.35155 0.2929288,0 0.380801,-0.14651 0.2929497,0.0587 0.4686878,0.0294 0.5858612,-0.38083 0.7030499,0.14647 0.6444478,-0.0879 -0.029279,0.26368 0.8495094,-0.2344 0.556574,0.35156 0.556557,0.0586 0.02928,1.02529 0.468688,0.0294 -0.02928,4.62836 0.995962,0.0294 0.02928,-0.41007 0.263646,0 -0.02928,0.4394 0.263649,0 -0.02928,-0.67375 0.497992,-0.20504 0.263645,0.20504 0,0.67375 1.14244,0 0,-0.55659 0.125396,-0.2172 0.460465,0 0,0.59803 0.732337,0 0.08841,0.32997 0,0.92963 1.87425,0 0,2.81218 0.509619,0.29421 0,0.37952 -0.27372,0.47414 0.555025,0 5.682928,0.28749 0.878789,-0.46867 0,-1.25961 0.26365,0 -0.146476,-0.67378 0.849506,-0.23436 -0.05858,-4.33541 -0.497992,-0.41006 0.55434,0 0,-0.42033 0.455706,0 0,-0.26927 0.414253,0 0,-0.35215 0.393565,0 0,-0.26931 0.434992,0 0,-0.35214 0.476398,0 0,-0.3521 0.126323,-0.0341 0,-0.98117 0.201702,-0.054 0,-1.25093 -0.245174,0 0,-0.18645 0.248573,0 0,-0.31062 0.227826,0 0,0.31062 0.20715,0 0,0.18645 -0.203621,0.0546 0,1.25035 0.182907,0 0,1.05647 0,0.28997 0.455706,0 0.08321,0.31057 0.351779,0 0,0.33154 0.455702,0 0,0.3314 0.372834,0 0.08044,0.30023 0.395975,0 0,0.34188 0.538532,0 0,0.37284 -0.344065,0.0922 -0.196124,0.19615 0,0.80949 -0.206313,0.20634 0.298468,-0.17234 0,2.90732 8.464199,-0.0829 3.707709,-0.0829 0.08287,-9.73536 1.594935,0 1.905649,-0.12426 9.756083,0.31071 -0.06213,9.46609 18.994328,0.0829 0.124273,-15.94943 5.654786,-0.39354 0.04144,-0.76641 0.04231,-1.86184 -0.585882,0 -0.02928,-0.41007 0.76162,-0.0294 -0.263654,-0.76163 0.117199,-2.1091 0.322211,-0.0586 0.05861,-2.37274 0.20504,0 -0.05857,2.34346 0.380821,0.23431 0,1.05457 0.02924,1.64045 0.527292,0.0294 0,0.2344 -0.146471,0.23431 -0.351516,0.0294 0.117166,2.57781 2.694999,0.11716 0,-0.2929 0.263655,-0.0586 0,-3.86678 -0.234367,-0.20504 0.05857,-0.29295 -0.322238,-0.11716 -0.02924,-0.29291 0.05857,-0.0879 0.0879,-0.1758 0.380813,-0.0586 -0.02933,-0.87877 0.175788,-0.0294 -0.161053,-0.25202 0,-0.40393 0.134638,-0.0621 0,-0.70423 0.08016,-0.2991 0.12701,0 0.08033,0.29977 0,0.67248 0.07703,0.13348 0.03925,0.14621 0.13379,-0.0772 0.03142,-0.11711 0.09092,-0.0244 0.0423,-0.15766 0,-0.16234 0.09494,-0.1644 0.07102,-0.0193 0.02219,0.0828 0.03577,0.13339 0.107993,-0.029 0.07424,0 0,0.24483 0,0.2485 0.258937,0 0,-0.14501 -0.08251,-0.0223 0,-0.22649 0.04639,0.0464 0,-0.13963 0,-0.0725 -0.06171,-0.10689 0.04857,-0.0841 0.09069,-0.55473 0.134634,-0.0518 0.103563,0.10357 0.01036,0.98391 0.06214,0.12426 -0.02071,0.1554 0.103562,0.0206 0,-0.90107 0.06214,-0.26927 0.103563,-0.0206 0.05179,0.1761 0.05179,0.11387 0,0.83894 0.06214,0.24853 -0.01036,0.26931 0.08286,0.0725 0.01036,0.14496 0.0725,0.0206 0.05179,-0.0519 -0.01036,-0.43493 0.09319,-0.12431 0.186438,0 0.03107,0.21749 0.02071,0.1657 -0.03107,0.12431 0.04143,0.10357 0.176054,-0.0417 0.03107,-0.30036 0.04143,-0.18644 0.227866,-0.0206 0,-0.145 0.165705,-0.0312 0.124269,0.0519 0.103571,0.24853 0.04143,-0.3521 -0.22784,-0.20714 -0.06214,-0.24853 0.144991,-0.18648 -0.165705,-0.1864 -0.248572,0.0206 0.02071,-0.24857 c 0,0 0.06214,-0.1864 0.145009,-0.1864 0.08286,0 0.331403,0 0.331403,0 l 0,-0.91138 0.269286,-0.0829 0.103571,0.20717 0.04143,0.33141 0.06214,0.39358 0.227839,-0.0829 0.269269,0.0206 0,-2.2152 -0.250173,-0.41011 0.29295,-0.0441 0,-2.21162 -0.175758,-0.0733 0,-0.21963 0.102536,-0.0294 0,-0.43939 -0.219728,-0.0441 0,-0.16112 0.161145,-0.0732 0.05857,-0.0441 -0.02924,-0.26363 0.117166,-0.0586 0,-1.28893 0.263646,0 0.04395,1.23033 0.146454,0.0147 -0.02924,-0.42479 0.0732,-0.16107 0.102509,-0.14652 0.117201,0 0.16111,0.29295 0.01462,0.41007 0.175785,0.0147 -0.02924,-0.7177 0.24898,0 0,-2.3435 -0.131814,-0.11711 -0.02924,-0.13184 0.102509,-0.0732 0,-1.17172 -0.380821,-0.27832 0,-0.54195 0.190424,0.0294 0.08789,0.0586 0.322237,0 1.21566,-1.362128 -0.04395,-0.21971 -0.307573,-0.08788 0.02924,-0.219675 0.205046,-0.02942 -0.01462,-0.292951 0.292924,0 0,-0.322237 0.175767,0 -0.04395,-0.439386 -0.307572,-0.336912 -0.01462,-0.351464 0.527292,-0.35156 -0.02924,-0.234307 -0.336868,-0.175801 -0.04395,-0.02942 -0.02924,-0.38083 -0.117175,-0.01471 0,-0.146514 0.04395,-0.219676 0,-0.703068 0.483348,0 0,-0.219667 -0.454043,-0.102518 0,-0.190441 0.512626,-0.102475 0,-0.468744 -0.541931,-0.175758 0.01462,-0.131797 0.50025,-0.134025 0,-0.422562 -0.544211,-0.17575 -0.01462,-0.14648 0.600514,-0.05857 0,-0.483392 -0.571236,-0.146436 0.02924,-0.102553 0.615162,-0.13184 0,-0.468622 -0.234358,0.01471 0.01462,-0.366147 0.234341,0 0,-0.13184 -0.263655,0 0,-0.351464 0.263655,0 -0.01462,-0.102562 -0.263646,-0.05858 0,-0.336868 0.278285,0 0,-0.08788 -0.278285,-0.08792 0,-0.380829 0.146471,-0.05858 0.01462,-0.08788 0.131814,-0.01471 0,-0.161162 -0.278294,0 0,-0.410108 0.292933,0.01471 0,-2.18239 0.114416,-0.198213 0.0026,-1.149312 0.04395,1.171776 0.0732,0.131788 0,1.97731 0.322238,0.14648 0.02924,0.497987 -0.322238,0.08788 0,0.07328 0.190398,0.131754 0.02924,0.131831 0.02924,0.27832 -0.219702,0.04369 0,0.146514 0.205063,-0.01471 0.01462,0.336877 -0.205072,0.02942 0.02924,0.14648 0.161127,0.04413 0,0.278311 -0.21971,0.01471 0,0.13184 0.23435,0.07328 0,0.336834 -0.190407,0 0,0.38083 0.615206,0.164774 -0.01462,0.128133 -0.61692,0.165322 0,0.435183 0.571218,0.153042 0,0.19851 -0.554812,0.0732 0,0.410073 0.566884,0.151946 0,0.170283 -0.571888,0.153251 0,0.461938 0.58423,0.156523 0,0.136427 -0.593891,0.04413 0,0.248998 0.615179,0 0,0.908095 -0.175775,0.131832 0,0.497952 -0.424739,0.05858 0,0.234359 0.439378,0.336868 0.05858,0.161119 -0.01462,0.190397 -0.05857,0.117193 -0.161119,0.190441 -0.131831,0.0732 -0.01462,0.351508 0.205063,0.190441 0.02924,0.175748 0,0.102519 0.190398,-0.175759 0.0879,0.0732 -0.01462,0.351516 0.02924,0.190389 0.102518,-0.395469 0.08787,0.336912 0.04395,0.248954 -0.205036,0.02942 -0.102536,0.117158 0.0732,0.146436 0.585858,0.864177 0.336877,0.322233 0.190397,0.14643 0.263655,-0.0294 0.0732,-0.219715 0.184993,0.04964 0,0.50699 -0.356129,0.35614 -0.04857,0.0979 0.01462,1.15705 0.08787,0.13184 -0.01462,0.11719 -0.117175,0.0294 -0.02924,0.0586 0,2.18229 0.07642,0.2853 0.09933,-0.007 0.02924,0.39543 0.175776,0.0879 -0.01462,-0.86414 0.234359,0.0441 0.117157,0.23432 0.05858,0.26367 0.146471,0.0437 0.05857,-0.45402 0.04395,-0.58587 0.190423,0.10252 0.01462,0.14648 0.08787,0.17571 -0.01462,0.5273 0,0.41012 0.102527,0.13183 0,0.26364 0.131805,0.11716 -0.01462,0.10251 -0.146445,0.11715 0,0.64447 -0.07267,0.12595 0,2.04176 0.192286,0.0515 -0.03124,0.18287 -0.08787,0.0294 -0.02924,0.1904 -0.02924,0.14648 -0.0732,0.10251 0,2.21167 0.746976,0.0147 0.0879,0.16107 0.05857,0.39548 0.292925,0.46866 0.13184,0.0879 0.26362,-0.0294 0.205063,0.16116 0.16109,-0.0147 0.21973,-0.17576 0.20504,0 0.10252,-0.32222 -0.0146,-0.41011 0.10251,-0.3222 0.0586,-0.19043 0.33687,0.0294 0.0146,0.1904 0.11717,0.21971 0.0146,0.32223 -0.0146,0.26363 0.0292,0.27828 0.21971,-0.0294 0.0146,-0.55659 0.35151,-0.0147 0.0586,0.26367 0,0.13184 0.044,0.20503 0.13182,0.13184 0.13181,0.10247 0.16112,-0.10247 -0.044,-0.19044 0.1318,-0.21967 c 0,0 -0.17575,-0.11725 -0.1318,-0.21972 0.044,-0.10255 0.0586,-0.38083 0.0586,-0.38083 l -0.0292,-0.17575 0.11716,-0.10256 0.0879,0.0586 0.0733,0.24899 0.11717,0.2344 -0.0146,0.23431 0.0292,0.27828 -0.0146,0.19043 0,0.32219 -0.0292,0.19044 0.0879,0.19039 0.0439,0.14652 -0.0439,0.13175 0.10253,0.3076 0.2197,0.20507 0.10253,0.20504 0.10251,0.0586 0.0292,0.0879 -0.48332,0.42479 0.006,0.27137 -0.14499,0.0621 0,3.91483 0.16569,0.16574 -0.0207,0.18644 -0.14499,0.12422 -0.0207,0.74572 0.16574,0.18644 0,0.10357 -0.12428,0.12427 0,10.68818 0.18642,0.4764 0.18641,0.0621 0.24858,0.24853 0.0207,-0.55924 0.20713,0 -0.0207,-0.16571 0.20713,0 0.0207,0.72495 0.12431,0.0417 -0.0207,-0.45571 0.12426,0.0829 0.10357,0 0,-0.45573 0.26928,0 0.0621,0.41427 0.0622,0.35215 0.12425,-0.33141 0.0414,0.10355 0.0414,0.24853 0.1243,-0.72494 0.20712,0 0.0829,0.57999 0.2693,0.0829 0.0829,-0.49714 0.24855,0 0.33143,-0.0829 0.0621,-0.37281 0.1243,0 0.10357,0.33136 0.0828,-0.0206 0.1243,-0.16579 0.0829,0.20717 0.0621,0.22783 0.0414,0.14497 0.29,0.22787 0.0414,0.14506 0.14499,-0.0206 0.0829,-0.64212 0.35215,0 0.0829,0.28999 0.10357,0.0621 0.0621,0.24862 0.10359,-0.1243 -0.0207,-0.51786 0.26928,0 0,1.55351 0.31072,0.1243 0,0.22787 -0.25894,0.25889 0,2.22668 0.15535,0.0829 -0.0287,0.10697 -0.14967,0.14963 0,5.43962 0.17833,-0.0417 0,-0.47641 0.145,-0.0206 0.0829,0.14495 0.41426,0 0,0.37284 0.14048,-0.0374 0.12866,-0.48025 0.12643,-0.0341 0,0.61391 0.20691,0.0555 0,0.54522 0.15242,0.26397 0.19794,0 0.18641,0 0,0.68888 0.33168,0.1915 -0.053,0.0919 4.27835,0.007 0,-16.55009 0.99424,0 0,-0.91138 1.2221,0 0,-0.51784 0.22786,0 0,0.28997 0.55925,0 0,-0.62141 0.35214,0 0.29128,-0.0781 0.17015,-0.0456 0.13209,-0.13209 0.13756,0.0795 0.10073,0.17441 0.72172,0 0.13927,-0.24125 0.24457,0.14123 -0.0718,0.26796 0,0.31032 0.10224,0.12431 2.07136,0 0,0.22787 1.15995,0 0,-0.57997 0.80782,0 0.0546,0.2036 0.93969,0 0.13287,-0.13289 0.71638,0 0,0.23994 0,1.03569 0.51784,0 0,-0.41428 0.70424,0 0,0.43498 0.16572,0.18643 1.07713,0 0,9.83894 1.67774,0 0,-2.09211 -0.35211,-0.28997 5.65481,-0.12427 12.78025,-0.29001 -0.0414,-3.29341 3.54198,-0.0206 0,-0.43497 1.82283,-0.0622 0.0415,-0.24852 0.1864,-0.12426 c 0.70427,-10.41893 -1.63633,-24.79416 -2.89986,-28.14969 l 2.36134,2.31986 1.65706,0.0417 -0.0415,-0.37284 1.07708,0.0417 0,-0.41423 2.81706,-0.24862 1.11855,-0.0416 0.12425,0.16571 4.39129,0 0.0829,2.77561 5.71696,-0.28997 0,1.90563 3.10704,0.28997 0,0.6629 2.52706,0.16565 0,8.24401 15.45228,-0.62137 -0.16571,-2.36137 0.70428,-0.0416 0,-0.53859 -0.66282,-0.0828 -0.0415,-0.33138 0.16571,-0.1243 2.15421,-0.20714 0.0415,-1.11856 0.57997,0 -0.0415,0.12431 -0.45568,0.0417 0,0.4971 0.24855,0.16572 1.44997,-0.0829 0.16568,-0.0829 -0.0415,-0.86996 0.20713,0 0.0415,1.32568 0.78715,-0.1243 -0.12429,-0.29001 0.24855,0 0,-3.02414 0.57998,-0.37284 0.82853,0.16569 -0.0415,-0.62145 0.20713,-0.0417 0.16572,0.66284 0.66281,0.0416 0.12429,-0.95285 0.28997,-0.0412 0.2486,0.16569 0,-0.99424 0.24855,-0.0417 0.0415,0.91143 0.16572,0.41431 0,0.49711 0.41427,-0.41427 0,-0.49715 c 0,0 0.49713,-0.45567 0.49713,-0.12427 0,0.33141 0,0.78711 0,0.78711 l 1.15997,0.12426 0.62139,0.12431 -0.0415,-0.91142 0.41426,0.0829 0.12426,0.49711 0.33142,0 0.20713,-1.11852 0.0415,1.69849 2.23704,0.20714 -0.0415,-0.99426 0.74565,0.0417 0,-5.38556 0.20718,0.0413 0.0415,6.62835 2.81702,0.1243 0.1243,6.4212 3.68701,0.53851 -0.16571,-7.29116 1.90565,-0.1657 0.16572,-0.24857 1.61564,-0.0829 0,-0.82855 0.24855,0 0.0415,0.82855 0.66282,-0.0416 3.97699,-0.33144 0,-0.91142 2.60988,-0.2071 -0.12426,-8.905592 0.29002,-0.04169 0.16567,8.118522 0.70428,0 0.0829,-0.45571 1.94707,-0.0416 0.0829,0.41423 0.28997,0.16574 0.29001,0.41428 3.14845,0 0,-7.82973 6.37979,-0.74446 -0.0829,-0.290009 -0.49714,-0.124268 -0.0829,-0.289966 0.74565,-0.04169 0.24859,0.04169 3.60414,-0.414312 0.41426,-0.579973 0.37289,0 0.0828,0.37283 0,0.952814 4.26704,0.497152 0.78711,33.388992 0.53852,0.29001 0.41426,0 0.49715,-0.24858 0.37285,-0.1657 0.49714,-0.24857 1.07709,-0.0829 8.49257,-4.43271 0.33138,-2.89991 -0.20713,-8.07828 -0.24856,-0.12426 0.24856,-0.20714 0.16571,-0.37284 0.29002,-0.24857 0,-0.86997 7.37398,-0.41429 1.15996,0.24862 0.66286,-0.0417 0.0415,0.24857 -0.16571,0.3314 0.16571,4.72272 1.82278,0.12427 0.0414,0.33144 0.12426,0.5385 -0.20713,0.49714 0.24855,7.7883 3.9356,2.07137 14.62376,-0.66285 3.39701,0 0.0415,-1.49135 0.66286,-0.12431 -0.0829,-0.37284 2.36134,-0.12426 0.12429,-0.78716 1.32568,0 1.03567,-0.28996 0.20717,-0.20714 0.70424,0 0.28997,0.24857 0.0415,-0.45569 1.57422,-0.0829 0.45569,0.28997 0.20713,0.41426 2.98273,-0.0417 0,0.82855 0.70428,0.1243 0.95283,0.49711 2.23704,-0.0417 0,-0.99425 3.68706,0 -0.0415,-0.62141 0.53856,-0.0417 1.3671,0.20718 0.1243,0.41427 2.98273,0.0829 0.0415,0.57997 0.53856,-0.16574 0.0415,-0.33136 0.78711,0 0.33143,0.41427 1.36709,0 0,-0.49714 0.91141,0.0412 0.0829,0.41433 1.28421,-0.0829 -0.0415,-3.76986 -0.24855,-0.91142 0.0415,-0.62137 1.82282,-0.16574 0.16567,-0.37284 0.53856,-0.0416 0,-3.23137 2.31993,-0.28997 -0.12431,-0.49714 0.24856,-0.16571 0.58002,-0.0417 -2.02937,-0.53592 2.05055,-0.0586 20.30362,-0.32274 0.27948,11.47386 53.87209,-0.86653 0.138,17.18973"
       style="fill:#000000;fill-opacity:1;stroke:#000000;stroke-width:0.37102956;stroke-linecap:butt;stroke-linejoin:miter;stroke-miterlimit:4;stroke-dasharray:none;stroke-opacity:1"
       inkscape:export-filename="C:\Users\admin\projects\golang-warsaw\golang-warsaw.png"
       inkscape:export-xdpi="89.959999"
       inkscape:export-ydpi="89.959999" /></g><flowRoot
     transform="matrix(0.76464461,0,0,0.76464461,5.8515643,177.26131)"
     xml:space="preserve"
     id="flowRoot4195-5"
     style="font-style:normal;font-weight:normal;font-size:60px;line-height:125%;font-family:Sans;letter-spacing:0px;word-spacing:0px;fill:#000000;fill-opacity:1;stroke:none;stroke-width:1.10000002;stroke-miterlimit:4;stroke-dasharray:none;stroke-opacity:1"
     inkscape:export-filename="C:\Users\admin\projects\golang-warsaw\golang-warsaw.png"
     inkscape:export-xdpi="90"
     inkscape:export-ydpi="90"><flowRegion
       style="stroke-width:1.10000002"
       id="flowRegion4197-6"><rect
         id="rect4199-6"
         width="1365.7803"
         height="258.96371"
         x="-7.7003913"
         y="-41.604832"
         style="font-size:60px;fill:#000000;fill-opacity:1;stroke:none;stroke-width:3.47036529;stroke-miterlimit:4;stroke-dasharray:none;stroke-opacity:1" /></flowRegion><flowPara
       id="flowPara4409"
       style="font-style:normal;font-variant:normal;font-weight:bold;font-stretch:normal;font-size:60px;font-family:'DejaVu Sans';-inkscape-font-specification:'DejaVu Sans Bold';fill:#000000;fill-opacity:1;stroke:none;stroke-width:1.10000002;stroke-miterlimit:4;stroke-dasharray:none;stroke-opacity:1">Golang Warsaw</flowPara></flowRoot></g></svg>