<?xml version="1.0" encoding="UTF-8" standalone="no"?>
<!-- Generator: Adobe Illustrator 15.0.0, SVG Export Plug-In . SVG Version: 6.00 Build 0)  -->

<svg
   xmlns:dc="http://purl.org/dc/elements/1.1/"
   xmlns:cc="http://creativecommons.org/ns#"
   xmlns:rdf="http://www.w3.org/1999/02/22-rdf-syntax-ns#"
   xmlns:svg="http://www.w3.org/2000/svg"
   xmlns="http://www.w3.org/2000/svg"
   xmlns:xlink="http://www.w3.org/1999/xlink"
   xmlns:sodipodi="http://sodipodi.sourceforge.net/DTD/sodipodi-0.dtd"
   xmlns:inkscape="http://www.inkscape.org/namespaces/inkscape"
   version="1.1"
   id="レイヤー_1"
   x="0px"
   y="0px"
   width="1200"
   height="300"
   viewBox="0 0 1200 300"
   enable-background="new 0 0 401.98 559.472"
   xml:space="preserve"
   inkscape:version="0.91pre3 r13670"
   sodipodi:docname="golang-warsaw-g+.svg"
   inkscape:export-filename="C:\Users\roman.frolow\projects\golang-warsaw\golang-warsaw.png"
   inkscape:export-xdpi="90"
   inkscape:export-ydpi="90"><metadata
   id="metadata61"><rdf:RDF><cc:Work
       rdf:about=""><dc:format>image/svg+xml</dc:format><dc:type
         rdf:resource="http://purl.org/dc/dcmitype/StillImage" /><dc:title></dc:title></cc:Work></rdf:RDF></metadata><defs
   id="defs59"><linearGradient
     id="linearGradient4141"><stop
       style="stop-color:#e1ffff;stop-opacity:1;"
       offset="0"
       id="stop4143" /><stop
       style="stop-color:#5ba4a4;stop-opacity:1;"
       offset="1"
       id="stop4145" /></linearGradient><linearGradient
     id="linearGradient4105"><stop
       style="stop-color:#f6ff4a;stop-opacity:1;"
       offset="0"
       id="stop4107" /><stop
       style="stop-color:#ffff00;stop-opacity:1;"
       offset="1"
       id="stop4109" /></linearGradient><linearGradient
     inkscape:collect="always"
     xlink:href="#linearGradient4105"
     id="linearGradient4119"
     x1="412.99265"
     y1="-1100.2925"
     x2="732.46716"
     y2="-1100.2925"
     gradientUnits="userSpaceOnUse" /><linearGradient
     inkscape:collect="always"
     xlink:href="#linearGradient4105"
     id="linearGradient4121"
     gradientUnits="userSpaceOnUse"
     x1="412.99265"
     y1="-1100.2925"
     x2="732.46716"
     y2="-1100.2925" /><linearGradient
     inkscape:collect="always"
     xlink:href="#linearGradient4105"
     id="linearGradient4123"
     gradientUnits="userSpaceOnUse"
     x1="412.99265"
     y1="-1100.2925"
     x2="732.46716"
     y2="-1100.2925" /><linearGradient
     inkscape:collect="always"
     xlink:href="#linearGradient4105"
     id="linearGradient4125"
     gradientUnits="userSpaceOnUse"
     x1="412.99265"
     y1="-1100.2925"
     x2="732.46716"
     y2="-1100.2925" /><linearGradient
     inkscape:collect="always"
     xlink:href="#linearGradient4105"
     id="linearGradient4127"
     gradientUnits="userSpaceOnUse"
     x1="412.99265"
     y1="-1100.2925"
     x2="732.46716"
     y2="-1100.2925" /><linearGradient
     inkscape:collect="always"
     xlink:href="#linearGradient4105"
     id="linearGradient4129"
     gradientUnits="userSpaceOnUse"
     x1="412.99265"
     y1="-1100.2925"
     x2="732.46716"
     y2="-1100.2925" /><linearGradient
     inkscape:collect="always"
     xlink:href="#linearGradient4105"
     id="linearGradient4131"
     gradientUnits="userSpaceOnUse"
     x1="412.99265"
     y1="-1100.2925"
     x2="732.46716"
     y2="-1100.2925" /><linearGradient
     inkscape:collect="always"
     xlink:href="#linearGradient4105"
     id="linearGradient4133"
     gradientUnits="userSpaceOnUse"
     x1="412.99265"
     y1="-1100.2925"
     x2="732.46716"
     y2="-1100.2925" /><linearGradient
     inkscape:collect="always"
     xlink:href="#linearGradient4105"
     id="linearGradient4135"
     gradientUnits="userSpaceOnUse"
     x1="412.99265"
     y1="-1100.2925"
     x2="732.46716"
     y2="-1100.2925" /><linearGradient
     inkscape:collect="always"
     xlink:href="#linearGradient4105"
     id="linearGradient4137"
     gradientUnits="userSpaceOnUse"
     x1="412.99265"
     y1="-1100.2925"
     x2="732.46716"
     y2="-1100.2925" /><linearGradient
     inkscape:collect="always"
     xlink:href="#linearGradient4105"
     id="linearGradient4139"
     gradientUnits="userSpaceOnUse"
     x1="412.99265"
     y1="-1100.2925"
     x2="732.46716"
     y2="-1100.2925" /><linearGradient
     inkscape:collect="always"
     xlink:href="#linearGradient4141"
     id="linearGradient4147"
     x1="442.44952"
     y1="-1042.8918"
     x2="443.60681"
     y2="-1173.6431"
     gradientUnits="userSpaceOnUse" /></defs><sodipodi:namedview
   pagecolor="#ffffff"
   bordercolor="#666666"
   borderopacity="1"
   objecttolerance="10"
   gridtolerance="10"
   guidetolerance="10"
   inkscape:pageopacity="0"
   inkscape:pageshadow="2"
   inkscape:window-width="1842"
   inkscape:window-height="1173"
   id="namedview57"
   showgrid="false"
   inkscape:zoom="3.3746104"
   inkscape:cx="117.46898"
   inkscape:cy="33.812918"
   inkscape:window-x="-9"
   inkscape:window-y="101"
   inkscape:window-maximized="1"
   inkscape:current-layer="レイヤー_1"
   fit-margin-top="0"
   fit-margin-left="0"
   fit-margin-right="0"
   fit-margin-bottom="0" />




















<g
   id="g4149"
   inkscape:export-filename="C:\Users\admin\projects\golang-warsaw\golang-warsaw.png"
   inkscape:export-xdpi="90"
   inkscape:export-ydpi="90"
   transform="matrix(1.2505363,0,0,1.2505363,-8.2684474,1486.4273)"><rect
     inkscape:export-ydpi="89.959999"
     inkscape:export-xdpi="89.959999"
     inkscape:export-filename="C:\Users\admin\projects\golang-warsaw\golang-warsaw.png"
     style="fill:url(#linearGradient4147);fill-opacity:1;fill-rule:evenodd;stroke:#000000;stroke-width:0.38716349px;stroke-linecap:butt;stroke-linejoin:miter;stroke-opacity:1"
     id="rect3040"
     width="959.61285"
     height="149.61284"
     x="6.8055029"
     y="-1188.1028" /><g
     style="fill:url(#linearGradient4119);fill-opacity:1"
     transform="matrix(0.86357673,0,0,0.86357673,250.21351,-163.47651)"
     id="g4093"><path
       sodipodi:start="4.6093856"
       sodipodi:end="4.830221"
       sodipodi:cx="368.40225"
       sodipodi:cy="439.36499"
       transform="matrix(0.63350123,0,0,0.63350123,339.74624,-1299.2047)"
       inkscape:transform-center-y="-424.61011"
       inkscape:transform-center-x="-8.6351025"
       d="m 342.47645,188.55723 a 252.14417,252.14417 0 0 1 55.56775,0.412 l -29.64195,250.39576 z"
       sodipodi:type="arc"
       style="opacity:0.98999999;fill:url(#linearGradient4121);fill-opacity:1"
       sodipodi:ry="252.14417"
       sodipodi:rx="252.14417"
       id="path4340" /><path
       sodipodi:start="4.6093856"
       sodipodi:end="4.830221"
       sodipodi:cx="368.40225"
       sodipodi:cy="439.36499"
       transform="matrix(0.58521745,0.24258508,-0.24258508,0.58521745,464.08026,-1367.1857)"
       inkscape:transform-center-y="-405.97587"
       inkscape:transform-center-x="-209.77198"
       d="m 342.47645,188.55723 a 252.14417,252.14417 0 0 1 55.56775,0.412 l -29.64195,250.39576 z"
       sodipodi:type="arc"
       style="opacity:0.98999999;fill:url(#linearGradient4123);fill-opacity:1"
       sodipodi:ry="252.14417"
       sodipodi:rx="252.14417"
       id="path4354" /><path
       sodipodi:start="4.6093856"
       sodipodi:end="4.830221"
       sodipodi:cx="368.40225"
       sodipodi:cy="439.36499"
       transform="matrix(0.45037273,0.44550109,-0.44550109,0.45037273,602.82041,-1382.5624)"
       inkscape:transform-center-y="-329.30415"
       inkscape:transform-center-x="-333.71543"
       d="m 342.47645,188.55723 a 252.14417,252.14417 0 0 1 55.56775,0.412 l -29.64195,250.39576 z"
       sodipodi:type="arc"
       style="opacity:0.98999999;fill:url(#linearGradient4125);fill-opacity:1"
       sodipodi:ry="252.14417"
       sodipodi:rx="252.14417"
       id="path4356" /><path
       sodipodi:start="4.6093856"
       sodipodi:end="4.830221"
       sodipodi:cx="368.40225"
       sodipodi:cy="439.36499"
       transform="matrix(0.26664232,0.57464656,-0.57464656,0.26664232,727.12246,-1349.3205)"
       inkscape:transform-center-y="-215.22393"
       inkscape:transform-center-x="-404.50456"
       d="m 342.47645,188.55723 a 252.14417,252.14417 0 0 1 55.56775,0.412 l -29.64195,250.39576 z"
       sodipodi:type="arc"
       style="opacity:0.98999999;fill:url(#linearGradient4127);fill-opacity:1"
       sodipodi:ry="252.14417"
       sodipodi:rx="252.14417"
       id="path4358" /><path
       sodipodi:start="4.6093856"
       sodipodi:end="4.830221"
       sodipodi:cx="368.40225"
       sodipodi:cy="439.36499"
       transform="matrix(0.07610479,0.62891173,-0.62891173,0.07610479,821.01908,-1285.5528)"
       inkscape:transform-center-y="-91.722105"
       inkscape:transform-center-x="-424.89427"
       d="m 342.47645,188.55723 a 252.14417,252.14417 0 0 1 55.56775,0.412 l -29.64195,250.39576 z"
       sodipodi:type="arc"
       style="opacity:0.98999999;fill:url(#linearGradient4129);fill-opacity:1"
       sodipodi:ry="252.14417"
       sodipodi:rx="252.14417"
       id="path4360" /><path
       sodipodi:start="4.6093856"
       sodipodi:end="4.830221"
       sodipodi:cx="368.40225"
       sodipodi:cy="439.36499"
       transform="matrix(0.06451819,-0.63020958,0.63020958,0.06451819,272.06619,-816.73743)"
       inkscape:transform-center-y="-94.548388"
       inkscape:transform-center-x="424.368"
       d="m 342.47645,188.55723 a 252.14417,252.14417 0 0 1 55.56775,0.412 l -29.64195,250.39576 z"
       sodipodi:type="arc"
       style="opacity:0.98999999;fill:url(#linearGradient4131);fill-opacity:1"
       sodipodi:ry="252.14417"
       sodipodi:rx="252.14417"
       id="path4362" /><path
       sodipodi:start="4.6093856"
       sodipodi:end="4.830221"
       sodipodi:cx="368.40225"
       sodipodi:cy="439.36499"
       transform="matrix(0.26301211,-0.5763206,0.5763206,0.26301211,222.7667,-923.76303)"
       inkscape:transform-center-y="-222.63317"
       inkscape:transform-center-x="401.37977"
       d="m 342.47645,188.55723 a 252.14417,252.14417 0 0 1 55.56775,0.412 l -29.64195,250.39576 z"
       sodipodi:type="arc"
       style="opacity:0.98999999;fill:url(#linearGradient4133);fill-opacity:1"
       sodipodi:ry="252.14417"
       sodipodi:rx="252.14417"
       id="path4364" /><path
       sodipodi:start="4.6093856"
       sodipodi:end="4.830221"
       sodipodi:cx="368.40225"
       sodipodi:cy="439.36499"
       transform="matrix(0.45415342,-0.44166397,0.44166397,0.45415342,211.63152,-1057.2572)"
       inkscape:transform-center-y="-338.74962"
       inkscape:transform-center-x="324.05481"
       d="m 342.47645,188.55723 a 252.14417,252.14417 0 0 1 55.56775,0.412 l -29.64195,250.39576 z"
       sodipodi:type="arc"
       style="opacity:0.98999999;fill:url(#linearGradient4135);fill-opacity:1"
       sodipodi:ry="252.14417"
       sodipodi:rx="252.14417"
       id="path4366" /><path
       sodipodi:start="4.6093856"
       sodipodi:end="4.830221"
       sodipodi:cx="368.40225"
       sodipodi:cy="439.36499"
       transform="matrix(0.58064676,-0.25330645,0.25330645,0.58064676,247.87727,-1182.0932)"
       inkscape:transform-center-y="-407.40003"
       inkscape:transform-center-x="206.72015"
       d="m 342.47645,188.55723 a 252.14417,252.14417 0 0 1 55.56775,0.412 l -29.64195,250.39576 z"
       sodipodi:type="arc"
       style="opacity:0.98999999;fill:url(#linearGradient4137);fill-opacity:1"
       sodipodi:ry="252.14417"
       sodipodi:rx="252.14417"
       id="path4368" /><path
       sodipodi:start="1.8229213"
       sodipodi:end="4.9591223"
       sodipodi:cx="368.40225"
       sodipodi:cy="439.36499"
       transform="matrix(0.0545887,0.20620766,-0.20620766,0.0545887,644.61494,-1120.2951)"
       inkscape:transform-center-y="-69.258542"
       inkscape:transform-center-x="-142.87199"
       d="M 305.50179,683.53749 A 252.14417,252.14417 0 0 1 124.06107,377.123 252.14417,252.14417 0 0 1 429.98532,194.8569 l -61.58307,244.50809 z"
       sodipodi:type="arc"
       style="opacity:0.98999999;fill:url(#linearGradient4139);fill-opacity:1"
       sodipodi:ry="252.14417"
       sodipodi:rx="252.14417"
       id="path4370" /></g><path
     inkscape:export-ydpi="89.959999"
     inkscape:export-xdpi="89.959999"
     inkscape:export-filename="C:\Users\admin\projects\golang-warsaw\golang-warsaw.png"
     id="path3"
     d="m 186.0032,-1063.1237 c -0.19744,4.0706 -4.26393,2.1871 -6.1058,0.9146 -1.74832,-1.2082 -2.25951,-0.2039 -2.41302,-2.5883 -0.10053,-1.5671 -0.28118,-3.1343 -0.19227,-4.7076 2.64379,-0.2396 5.51941,0.3899 7.68691,1.9646 1.11644,0.8112 3.20978,3.4005 1.02418,4.4167"
     inkscape:connector-curvature="0"
     style="clip-rule:evenodd;fill:#f6d2a2;fill-rule:evenodd;stroke:#000000;stroke-width:0.7753076;stroke-linecap:round" /><path
     inkscape:export-ydpi="89.959999"
     inkscape:export-xdpi="89.959999"
     inkscape:export-filename="C:\Users\admin\projects\golang-warsaw\golang-warsaw.png"
     id="path5"
     d="m 186.0032,-1063.1237 c -0.59182,-0.2202 -1.21904,-0.3766 -1.62065,-0.9118"
     inkscape:connector-curvature="0"
     style="clip-rule:evenodd;fill:#c6b198;fill-rule:evenodd;stroke:#000000;stroke-width:0.7753076;stroke-linecap:round" /><path
     inkscape:export-ydpi="89.959999"
     inkscape:export-xdpi="89.959999"
     inkscape:export-filename="C:\Users\admin\projects\golang-warsaw\golang-warsaw.png"
     id="path7"
     d="m 176.6057,-1111.6166 c 15.58291,-4.3821 3.99568,-24.2062 -8.51779,-16.0523 l 8.51779,16.0523 z"
     inkscape:connector-curvature="0"
     style="clip-rule:evenodd;fill:#6ad7e5;fill-rule:evenodd;stroke:#000000;stroke-width:0.7753076;stroke-linecap:round" /><path
     inkscape:export-ydpi="89.959999"
     inkscape:export-xdpi="89.959999"
     inkscape:export-filename="C:\Users\admin\projects\golang-warsaw\golang-warsaw.png"
     id="path9"
     d="m 107.37125,-1129.1564 c -12.334368,-8.6636 -23.480449,10.883 -9.145528,15.801 l 9.145528,-15.801 z"
     inkscape:connector-curvature="0"
     style="clip-rule:evenodd;fill:#6ad7e5;fill-rule:evenodd;stroke:#000000;stroke-width:0.7753076;stroke-linecap:round" /><path
     inkscape:export-ydpi="89.959999"
     inkscape:export-xdpi="89.959999"
     inkscape:export-filename="C:\Users\admin\projects\golang-warsaw\golang-warsaw.png"
     id="path19"
     d="m 175.95548,-1117.0919 c 2.05585,-1.0875 3.56408,-2.5644 2.30654,-4.9423 -1.16426,-2.2013 -3.32711,-1.9623 -5.38322,-0.8748 l 3.07668,5.8171 z"
     inkscape:connector-curvature="0"
     style="clip-rule:evenodd;fill-rule:evenodd" /><path
     inkscape:export-ydpi="89.959999"
     inkscape:export-xdpi="89.959999"
     inkscape:export-filename="C:\Users\admin\projects\golang-warsaw\golang-warsaw.png"
     id="path21"
     d="m 101.47349,-1119.1593 c -2.055862,-1.0875 -3.564094,-2.5645 -2.306545,-4.9424 1.164255,-2.2013 3.327105,-1.9623 5.383215,-0.8748 l -3.07667,5.8172 z"
     inkscape:connector-curvature="0"
     style="clip-rule:evenodd;fill-rule:evenodd" /><path
     inkscape:export-ydpi="89.959999"
     inkscape:export-xdpi="89.959999"
     inkscape:export-filename="C:\Users\admin\projects\golang-warsaw\golang-warsaw.png"
     id="path23"
     d="m 87.321796,-1063.6406 c 0.197445,4.0706 4.263933,2.1871 6.105805,0.9146 1.748319,-1.2082 2.259505,-0.2039 2.413016,-2.5882 0.100532,-1.5672 0.281178,-3.1343 0.192276,-4.7077 -2.643798,-0.2396 -5.519414,0.39 -7.686916,1.9646 -1.116184,0.8113 -3.209773,3.4005 -1.024181,4.4167"
     inkscape:connector-curvature="0"
     style="clip-rule:evenodd;fill:#f6d2a2;fill-rule:evenodd;stroke:#000000;stroke-width:0.7753076;stroke-linecap:round" /><path
     inkscape:export-ydpi="89.959999"
     inkscape:export-xdpi="89.959999"
     inkscape:export-filename="C:\Users\admin\projects\golang-warsaw\golang-warsaw.png"
     id="path25"
     d="m 87.321796,-1063.6406 c 0.591818,-0.2202 1.219042,-0.3765 1.620651,-0.9118"
     inkscape:connector-curvature="0"
     style="clip-rule:evenodd;fill:#c6b198;fill-rule:evenodd;stroke:#000000;stroke-width:0.7753076;stroke-linecap:round" /><g
     inkscape:export-ydpi="89.959999"
     inkscape:export-xdpi="89.959999"
     inkscape:export-filename="C:\Users\admin\projects\golang-warsaw\golang-warsaw.png"
     transform="matrix(-0.25843586,0,0,0.25843586,188.75141,-1140.7819)"
     id="g27">
	<path
   id="path29"
   d="m 195.512,13.124 c 60.365,0 116.953,8.633 146.452,66.629 26.478,65.006 17.062,135.104 21.1,203.806 4.14106,38.66331 2.02209,72.88957 -4.82708,102.55508 -47.40691,0.86927 -166.14823,6.9314 -312.985917,-33.57483 C 43.397519,335.11355 42.847443,316.34662 43.792,296.223 46.444,230.452 25.977,164.481 47.584,100.122 69.999,33.359 130.451,18.271 195.512,13.124"
   inkscape:connector-curvature="0"
   style="clip-rule:evenodd;fill:#6ad7e5;fill-rule:evenodd;stroke:#000000;stroke-width:3;stroke-linecap:round"
   sodipodi:nodetypes="cccccccc" />
</g><path
     inkscape:export-ydpi="89.959999"
     inkscape:export-xdpi="89.959999"
     inkscape:export-filename="C:\Users\admin\projects\golang-warsaw\golang-warsaw.png"
     id="path31"
     d="m 135.46995,-1116.4476 c -2.80093,16.2823 -29.41569,11.9772 -25.59291,-4.4443 3.4279,-14.7257 26.52379,-10.6496 25.59291,4.4443"
     inkscape:connector-curvature="0"
     style="clip-rule:evenodd;fill:#ffffff;fill-rule:evenodd;stroke:#000000;stroke-width:0.75155729;stroke-linecap:round" /><path
     inkscape:export-ydpi="89.959999"
     inkscape:export-xdpi="89.959999"
     inkscape:export-filename="C:\Users\admin\projects\golang-warsaw\golang-warsaw.png"
     id="path33"
     d="m 167.27461,-1113.8141 c -3.63024,14.1752 -26.32531,10.546 -25.46988,-3.6732 1.02495,-17.0296 28.94068,-13.7436 25.46988,3.6732"
     inkscape:connector-curvature="0"
     style="clip-rule:evenodd;fill:#ffffff;fill-rule:evenodd;stroke:#000000;stroke-width:0.72915089;stroke-linecap:round" /><path
     inkscape:export-ydpi="89.959999"
     inkscape:export-xdpi="89.959999"
     inkscape:export-filename="C:\Users\admin\projects\golang-warsaw\golang-warsaw.png"
     id="path35"
     d="m 132.25888,-1096.9093 c -0.0119,2.1168 -0.48095,4.4934 -0.0806,6.7454 0.54039,1.0214 1.60049,1.1294 2.51432,1.5421 1.26375,-0.1982 2.32644,-1.028 2.83323,-2.2101 0.32434,-2.5704 -0.12094,-5.0592 -0.20287,-7.6306 l -5.06405,1.5532 z"
     inkscape:connector-curvature="0"
     style="clip-rule:evenodd;fill:#ffffff;fill-rule:evenodd;stroke:#000000;stroke-width:0.7753076;stroke-linecap:round" /><g
     inkscape:export-ydpi="89.959999"
     inkscape:export-xdpi="89.959999"
     inkscape:export-filename="C:\Users\admin\projects\golang-warsaw\golang-warsaw.png"
     transform="matrix(-0.25843586,0,0,0.25843586,188.75141,-1140.7819)"
     id="g37">
	<path
   style="fill-rule:evenodd"
   d="m 122.153,95.403999 c 0,8.870801 -6.63917,16.062001 -14.829,16.062001 -8.189833,0 -14.829003,-7.1912 -14.829003,-16.062001 0,-8.870797 6.63917,-16.062 14.829003,-16.062 8.18983,0 14.829,7.191203 14.829,16.062 z"
   id="ellipse39"
   inkscape:connector-curvature="0" />
	<path
   style="fill:#ffffff;fill-rule:evenodd"
   d="m 117.565,99.028999 c 0,2.254431 -1.56521,4.082001 -3.496,4.082001 -1.93079,0 -3.496,-1.82757 -3.496,-4.082001 0,-2.254426 1.56521,-4.081999 3.496,-4.081999 1.93079,0 3.496,1.827573 3.496,4.081999 z"
   id="ellipse41"
   inkscape:connector-curvature="0" />
</g><g
     inkscape:export-ydpi="89.959999"
     inkscape:export-xdpi="89.959999"
     inkscape:export-filename="C:\Users\admin\projects\golang-warsaw\golang-warsaw.png"
     transform="matrix(-0.25843586,0,0,0.25843586,188.75141,-1140.7819)"
     id="g43">
	<path
   style="fill-rule:evenodd"
   d="m 246.153,91.403999 c 0,8.870801 -6.52858,16.062001 -14.582,16.062001 -8.05342,0 -14.582,-7.1912 -14.582,-16.062001 0,-8.870797 6.52858,-16.062 14.582,-16.062 8.05342,0 14.582,7.191203 14.582,16.062 z"
   id="ellipse45"
   inkscape:connector-curvature="0" />
	<path
   style="fill:#ffffff;fill-rule:evenodd"
   d="m 241.64199,95.028999 c 0,2.254427 -1.53924,4.082 -3.438,4.082 -1.89875,0 -3.438,-1.827573 -3.438,-4.082 0,-2.254426 1.53925,-4.081999 3.438,-4.081999 1.89876,0 3.438,1.827573 3.438,4.081999 z"
   id="ellipse47"
   inkscape:connector-curvature="0" />
</g><path
     inkscape:export-ydpi="89.959999"
     inkscape:export-xdpi="89.959999"
     inkscape:export-filename="C:\Users\admin\projects\golang-warsaw\golang-warsaw.png"
     id="path49"
     d="m 143.21062,-1097.1398 c 1.67208,4.0522 -0.93244,12.1555 -5.46928,6.1786 0.32434,-2.5704 -0.12095,-5.0591 -0.20287,-7.6305 l 5.67215,1.4519 z"
     inkscape:connector-curvature="0"
     style="clip-rule:evenodd;fill:#ffffff;fill-rule:evenodd;stroke:#000000;stroke-width:0.7753076;stroke-linecap:round" /><g
     inkscape:export-ydpi="89.959999"
     inkscape:export-xdpi="89.959999"
     inkscape:export-filename="C:\Users\admin\projects\golang-warsaw\golang-warsaw.png"
     transform="matrix(-0.25843586,0,0,0.25843586,188.75141,-1140.7819)"
     id="g51">
	<path
   id="path53"
   d="m 178.431,138.673 c -12.059,1.028 -21.916,15.366 -15.646,26.709 8.303,15.024 26.836,-1.329 38.379,0.203 13.285,0.272 24.17,14.047 34.84,2.49 11.867,-12.854 -5.109,-25.373 -18.377,-30.97 l -39.196,1.568 z"
   inkscape:connector-curvature="0"
   style="clip-rule:evenodd;fill:#f6d2a2;fill-rule:evenodd;stroke:#231f20;stroke-width:3;stroke-linecap:round" />
	<path
   id="path55"
   d="m 176.913,138.045 c -0.893,-20.891 38.938,-23.503 43.642,-6.016 4.692,17.446 -41.681,21.498 -43.642,6.016 -1.565,-12.363 0,0 0,0 z"
   inkscape:connector-curvature="0"
   style="clip-rule:evenodd;fill-rule:evenodd" />
</g><path
     inkscape:export-ydpi="89.959999"
     inkscape:export-xdpi="89.959999"
     inkscape:export-filename="C:\Users\admin\projects\golang-warsaw\golang-warsaw.png"
     style="fill:#000000;fill-opacity:1;stroke:#000000;stroke-width:0.88200003;stroke-linecap:butt;stroke-linejoin:miter;stroke-miterlimit:4;stroke-dasharray:none;stroke-opacity:1"
     d="m 7.1956658,-948.98753 0.48741,-128.23687 3.0639702,-0.07 0.13927,-0.2785 -0.62674,-1.2534 4.31739,0.2089 -0.55708,-1.8803 3.96924,0 0.83561,0.7661 2.36763,0 1.46228,-0.9749 0.69641,0.07 -0.27854,0.8357 0.69634,0 0.90523,-0.3483 0.69639,0.1394 1.114151,0.07 1.39269,-0.9053 1.67127,0.3482 1.53196,-0.2089 -0.0696,0.6268 2.01943,-0.5572 1.32307,0.8357 1.32303,0.1392 0.0696,2.4373 1.11415,0.07 -0.0696,11.0024 2.36757,0.07 0.0696,-0.9748 0.62673,0 -0.0696,1.0445 0.62674,0 -0.0696,-1.6016 1.18381,-0.4874 0.62673,0.4874 0,1.6016 2.71577,0 0,-1.3231 0.29809,-0.5163 1.094601,0 0,1.4216 1.74089,0 0.21016,0.7844 0,2.2099 4.45541,0 0,6.685 1.21145,0.6994 0,0.9022 -0.65068,1.1271 1.31939,0 13.509281,0.6834 2.08903,-1.1141 0,-2.9943 0.62674,0 -0.3482,-1.6017 2.01942,-0.5571 -0.13927,-10.306 -1.18381,-0.9748 1.31776,0 0,-0.9992 1.08329,0 0,-0.6401 0.98475,0 0,-0.8371 0.93557,0 0,-0.6402 1.03405,0 0,-0.8371 1.13248,0 0,-0.837 0.30029,-0.081 0,-2.3324 0.47948,-0.1284 0,-2.9737 -0.58282,0 0,-0.4432 0.5909,0 0,-0.7384 0.54158,0 0,0.7384 0.49243,0 0,0.4432 -0.48404,0.1298 0,2.9723 0.4348,0 0,2.5114 0,0.6893 1.08329,0 0.19781,0.7383 0.83624,0 0,0.7881 1.08328,0 0,0.7878 0.88629,0 0.19122,0.7137 0.9413,0 0,0.8127 1.28018,0 0,0.8863 -0.8179,0.2191 -0.46622,0.4663 0,1.9243 -0.49044,0.4905 0.70951,-0.4097 0,6.9112 20.120831,-0.1969 8.81385,-0.197 0.197,-23.1426 3.79143,0 4.53005,-0.2954 23.19186,0.7386 -0.14771,22.5025 45.15273,0.1969 0.29542,-37.9145 13.44238,-0.9355 0.0985,-1.8219 0.10058,-4.4259 -1.39274,0 -0.0696,-0.9748 1.8105,-0.07 -0.62675,-1.8105 0.2786,-5.0137 0.76595,-0.1393 0.13932,-5.6404 0.48742,0 -0.13927,5.5708 0.90527,0.557 0,2.5069 0.0696,3.8996 1.25347,0.07 0,0.5572 -0.3482,0.557 -0.83561,0.07 0.27853,6.1279 6.40647,0.2785 0,-0.6963 0.62674,-0.1392 0,-9.192 -0.55713,-0.4874 0.13927,-0.6964 -0.76601,-0.2785 -0.0696,-0.6963 0.13927,-0.2089 0.20894,-0.4179 0.90527,-0.1393 -0.0697,-2.089 0.41787,-0.07 -0.38286,-0.5991 0,-0.9602 0.32005,-0.1477 0,-1.6741 0.19045,-0.711 0.30193,0 0.19091,0.7126 0,1.5986 0.18318,0.3173 0.0932,0.3476 0.31805,-0.1835 0.0746,-0.2784 0.21614,-0.058 0.10047,-0.3748 0,-0.3859 0.22567,-0.3908 0.1689,-0.046 0.0528,0.1968 0.085,0.3171 0.25673,-0.069 0.17648,0 0,0.582 0,0.5907 0.61553,0 0,-0.3447 -0.19608,-0.053 0,-0.5384 0.11034,0.1103 0,-0.3319 0,-0.1724 -0.14674,-0.2541 0.11537,-0.1998 0.21558,-1.3187 0.32005,-0.1231 0.24619,0.2462 0.0246,2.3389 0.14771,0.2954 -0.0492,0.3694 0.24619,0.049 0,-2.142 0.14771,-0.6401 0.24619,-0.049 0.12315,0.4186 0.12309,0.2707 0,1.9943 0.14771,0.5908 -0.0246,0.6402 0.19695,0.1723 0.0246,0.3446 0.17233,0.049 0.12309,-0.1232 -0.0246,-1.0339 0.22152,-0.2955 0.44319,0 0.0739,0.517 0.0492,0.3939 -0.0739,0.2955 0.0984,0.2462 0.41852,-0.099 0.0739,-0.714 0.0985,-0.4432 0.54167,-0.049 0,-0.3447 0.3939,-0.074 0.29542,0.1232 0.2462,0.5908 0.0985,-0.837 -0.54161,-0.4924 -0.14772,-0.5908 0.34466,-0.4433 -0.3939,-0.4431 -0.59091,0.049 0.0492,-0.5909 c 0,0 0.14776,-0.4431 0.34471,-0.4431 l 0.7878,0 0,-2.1665 0.64015,-0.1971 0.2462,0.4925 0.0985,0.7878 0.14772,0.9356 0.54162,-0.197 0.64009,0.049 0,-5.2659 -0.59469,-0.9749 0.69639,-0.1049 0,-5.2574 -0.41781,-0.1742 0,-0.5221 0.24374,-0.07 0,-1.0445 -0.52232,-0.105 0,-0.383 0.38305,-0.174 0.13927,-0.1049 -0.0696,-0.6267 0.27854,-0.1393 0,-3.064 0.62673,0 0.1045,2.9247 0.34815,0.035 -0.0696,-1.0098 0.17407,-0.3829 0.24368,-0.3483 0.27859,0 0.383,0.6964 0.0348,0.9748 0.41786,0.035 -0.0696,-1.7061 0.59187,0 0,-5.5709 -0.31334,-0.2784 -0.0696,-0.3134 0.24368,-0.1741 0,-2.7854 -0.90527,-0.6616 0,-1.2883 0.45267,0.07 0.20892,0.1392 0.76601,0 2.88984,-3.238 -0.1045,-0.5223 -0.73115,-0.2089 0.0696,-0.5222 0.48742,-0.07 -0.0348,-0.6964 0.69634,0 0,-0.766 0.41781,0 -0.1045,-1.0445 -0.73115,-0.8009 -0.0348,-0.8355 1.25347,-0.8357 -0.0696,-0.557 -0.8008,-0.4179 -0.1044,-0.07 -0.0696,-0.9053 -0.27854,-0.035 0,-0.3483 0.1044,-0.5222 0,-1.6713 1.149,0 0,-0.5222 -1.07934,-0.2437 0,-0.4527 1.21861,-0.2436 0,-1.1143 -1.28827,-0.4178 0.0348,-0.3133 1.18918,-0.3186 0,-1.0045 -1.29369,-0.4178 -0.0348,-0.3482 1.42753,-0.1392 0,-1.1491 -1.35792,-0.3481 0.0696,-0.2438 1.46235,-0.3134 0,-1.114 -0.55713,0.035 0.0348,-0.8704 0.55707,0 0,-0.3134 -0.62674,0 0,-0.8355 0.62674,0 -0.0348,-0.2438 -0.62673,-0.1392 0,-0.8008 0.66154,0 0,-0.2089 -0.66154,-0.209 0,-0.9053 0.34819,-0.1393 0.0348,-0.2089 0.31334,-0.035 0,-0.3831 -0.66154,0 0,-0.9749 0.69634,0.035 0,-5.1879 0.272,-0.4712 0.006,-2.7321 0.1045,2.7855 0.17407,0.3133 0,4.7004 0.76601,0.3482 0.0696,1.1838 -0.76601,0.2089 0,0.1742 0.45261,0.3132 0.0696,0.3134 0.0696,0.6616 -0.52228,0.1038 0,0.3483 0.48747,-0.035 0.0348,0.8008 -0.48748,0.07 0.0696,0.3482 0.38301,0.1049 0,0.6616 -0.52228,0.035 0,0.3134 0.55708,0.1742 0,0.8007 -0.45261,0 0,0.9053 1.46245,0.3917 -0.0348,0.3046 -1.46654,0.393 0,1.0345 1.35788,0.3638 0,0.4719 -1.31888,0.1741 0,0.9748 1.34759,0.3612 0,0.4048 -1.35947,0.3643 0,1.0981 1.3888,0.3721 0,0.3243 -1.41178,0.1049 0,0.5919 1.4624,0 0,2.1587 -0.41786,0.3134 0,1.1837 -1.00968,0.1393 0,0.5571 1.04449,0.8008 0.13927,0.383 -0.0348,0.4526 -0.13927,0.2786 -0.38301,0.4527 -0.31339,0.174 -0.0348,0.8356 0.48746,0.4527 0.0696,0.4178 0,0.2437 0.45262,-0.4178 0.20893,0.1741 -0.0348,0.8356 0.0696,0.4526 0.24372,-0.9401 0.20888,0.8009 0.1045,0.5918 -0.48742,0.07 -0.24373,0.2785 0.17408,0.3481 1.39268,2.0543 0.80081,0.766 0.45261,0.3481 0.62674,-0.07 0.17407,-0.5223 0.43976,0.1179 0,1.2052 -0.84657,0.8466 -0.11541,0.2328 0.0348,2.7505 0.20888,0.3134 -0.0348,0.2786 -0.27854,0.07 -0.0696,0.1393 0,5.1877 0.18169,0.6782 0.23612,-0.017 0.0696,0.94 0.41785,0.2089 -0.0348,-2.0542 0.55712,0.1049 0.27849,0.557 0.13932,0.6268 0.3482,0.1039 0.13922,-1.0793 0.1045,-1.3927 0.45266,0.2437 0.0348,0.3482 0.20888,0.4177 -0.0348,1.2535 0,0.9749 0.24373,0.3134 0,0.6267 0.31333,0.2785 -0.0348,0.2437 -0.34814,0.2785 0,1.532 -0.17284,0.2994 0,4.8536 0.45711,0.1225 -0.0742,0.4347 -0.20888,0.07 -0.0696,0.4526 -0.0696,0.3482 -0.17402,0.2437 0,5.2575 1.77569,0.035 0.20893,0.3829 0.13927,0.9401 0.69634,1.1141 0.3134,0.209 0.62667,-0.07 0.48748,0.3831 0.38294,-0.035 0.52233,-0.4178 0.48741,0 0.24373,-0.766 -0.0348,-0.9749 0.24368,-0.7659 0.13927,-0.4527 0.80081,0.07 0.0348,0.4526 0.27854,0.5223 0.0348,0.766 -0.0348,0.6267 0.0696,0.6615 0.52227,-0.07 0.0348,-1.3231 0.83562,-0.035 0.13927,0.6268 0,0.3134 0.1045,0.4874 0.31334,0.3134 0.31335,0.2436 0.383,-0.2436 -0.10439,-0.4527 0.31333,-0.5222 c 0,0 -0.4178,-0.2787 -0.31333,-0.5223 0.10439,-0.2438 0.13926,-0.9053 0.13926,-0.9053 l -0.0696,-0.4178 0.27853,-0.2438 0.20888,0.1393 0.17412,0.5919 0.27855,0.5572 -0.0348,0.557 0.0696,0.6615 -0.0348,0.4527 0,0.7659 -0.0696,0.4527 0.20888,0.4526 0.1045,0.3483 -0.1045,0.3132 0.24373,0.7312 0.52227,0.4875 0.24374,0.4874 0.24368,0.1393 0.0696,0.2089 -1.14895,1.0098 0.0134,0.6451 -0.34466,0.1477 0,9.3062 0.3939,0.394 -0.0492,0.4432 -0.34467,0.2953 -0.0492,1.7727 0.39396,0.4432 0,0.2462 -0.29542,0.2954 0,25.4076 0.44314,1.1325 0.44314,0.1478 0.59091,0.5908 0.0492,-1.3294 0.49238,0 -0.0492,-0.3939 0.49238,0 0.0492,1.7233 0.29548,0.099 -0.0492,-1.0833 0.29538,0.197 0.24619,0 0,-1.0833 0.64014,0 0.14772,0.9848 0.14777,0.8371 0.29537,-0.7878 0.0985,0.2462 0.0984,0.5908 0.29548,-1.7233 0.49238,0 0.19695,1.3787 0.64015,0.197 0.19695,-1.1818 0.59085,0 0.78786,-0.197 0.14766,-0.8862 0.29549,0 0.24618,0.7877 0.19696,-0.049 0.29547,-0.3941 0.19691,0.4925 0.14771,0.5416 0.0985,0.3446 0.68938,0.5417 0.0985,0.3448 0.34467,-0.049 0.19695,-1.5264 0.8371,0 0.19695,0.6893 0.24619,0.1477 0.14771,0.591 0.24625,-0.2955 -0.0492,-1.231 0.6401,0 0,3.6929 0.73863,0.2955 0,0.5417 -0.61553,0.6154 0,5.2932 0.36928,0.1971 -0.0682,0.2543 -0.35577,0.3557 0,12.9309 0.4239,-0.099 0,-1.1325 0.34472,-0.049 0.19695,0.3446 0.98476,0 0,0.8863 0.33392,-0.089 0.30586,-1.1416 0.30056,-0.081 0,1.4594 0.49186,0.1318 0,1.2961 0.36232,0.6275 0.47053,0 0.44314,0 0,1.6376 0.78847,0.4552 -0.12611,0.2185 10.17035,0.016 0,-39.3424 2.36348,0 0,-2.1665 2.90514,0 0,-1.231 0.54167,0 0,0.6893 1.32943,0 0,-1.4772 0.8371,0 0.69241,-0.1855 0.40449,-0.1084 0.31401,-0.314 0.327,0.1889 0.23943,0.4146 1.71566,0 0.33106,-0.5735 0.58138,0.3357 -0.1707,0.637 0,0.7377 0.24302,0.2955 4.92396,0 0,0.5417 2.75742,0 0,-1.3787 1.92034,0 0.12969,0.484 2.23383,0 0.31585,-0.3159 1.70296,0 0,0.5704 0,2.462 1.231,0 0,-0.9848 1.67408,0 0,1.034 0.39394,0.4432 2.56051,0 0,23.3888 3.98829,0 0,-4.9733 -0.83704,-0.6893 13.44246,-0.2954 30.38082,-0.6894 -0.0986,-7.829 8.4199,-0.049 0,-1.034 4.33315,-0.1478 0.0986,-0.5908 0.44311,-0.2954 c 1.67418,-24.7676 -3.88984,-58.9399 -6.89346,-66.9166 l 5.61331,5.5147 3.93911,0.099 -0.0986,-0.8863 2.5604,0.099 0,-0.9847 6.69665,-0.591 2.65896,-0.099 0.29537,0.3939 10.43885,0 0.19691,6.5981 13.5902,-0.6893 0,4.53 7.38595,0.6893 0,1.5758 6.00723,0.3938 0,19.5974 36.73271,-1.4771 -0.39393,-5.6134 1.67419,-0.099 0,-1.2803 -1.57563,-0.1969 -0.0986,-0.7877 0.39393,-0.2955 5.12092,-0.4924 0.0986,-2.659 1.37871,0 -0.0986,0.2955 -1.08324,0.099 0,1.1817 0.59085,0.3939 3.44683,-0.1969 0.39383,-0.197 -0.0986,-2.0681 0.49239,0 0.0986,3.1514 1.87121,-0.2955 -0.29547,-0.6894 0.59084,0 0,-7.1889 1.37871,-0.8863 1.96956,0.3939 -0.0986,-1.4773 0.49239,-0.099 0.39393,1.5757 1.57562,0.099 0.29548,-2.2651 0.6893,-0.098 0.59096,0.3939 0,-2.3635 0.59084,-0.099 0.0986,2.1666 0.39394,0.9849 0,1.1817 0.98478,-0.9848 0,-1.1818 c 0,0 1.18179,-1.0832 1.18179,-0.2954 l 0,1.8711 2.75743,0.2954 1.47716,0.2955 -0.0986,-2.1666 0.98478,0.197 0.29537,1.1817 0.78787,0 0.49238,-2.6589 0.0986,4.0376 5.31782,0.4924 -0.0986,-2.3635 1.77254,0.099 0,-12.8024 0.49249,0.098 0.0986,15.7567 6.69653,0.2955 0.29548,15.2643 8.76466,1.2801 -0.39393,-17.3323 4.53006,-0.3939 0.39393,-0.5909 3.84066,-0.1969 0,-1.9696 0.59085,0 0.0986,1.9696 1.57563,-0.099 9.45396,-0.7879 0,-2.1666 6.20414,-0.4923 -0.29537,-21.173 0.68941,-0.099 0.39383,19.302 1.67419,0 0.19702,-1.0833 4.62852,-0.099 0.19691,0.9847 0.68931,0.394 0.6894,0.9848 7.48441,0 0,-18.6126 15.16582,-1.7726 -0.19691,-0.6894 -1.1818,-0.2954 -0.19691,-0.6893 1.77254,-0.099 0.59095,0.099 8.56764,-0.9849 0.98477,-1.3787 0.88643,0 0.19681,0.8863 0,2.265 10.14348,1.1818 1.8711,79.3742 1.28014,0.6894 0.98478,0 1.1818,-0.5909 0.88632,-0.3939 1.1818,-0.5909 2.5604,-0.1969 20.18829,-10.5373 0.78776,-6.8936 -0.49239,-19.2034 -0.59085,-0.2954 0.59085,-0.4924 0.39393,-0.8863 0.68941,-0.5909 0,-2.0681 17.52921,-0.9848 2.75742,0.591 1.57573,-0.099 0.0986,0.5909 -0.39393,0.7878 0.39393,11.2267 4.33305,0.2954 0.0986,0.7879 0.29537,1.2801 -0.49239,1.1818 0.59085,18.5141 9.35561,4.924 34.76315,-1.5757 8.07525,0 0.0986,-3.5452 1.57574,-0.2955 -0.19702,-0.8863 5.6133,-0.2954 0.29547,-1.8712 3.15136,0 2.46195,-0.6893 0.49249,-0.4924 1.67408,0 0.68931,0.5909 0.0986,-1.0833 3.7422,-0.1969 1.08324,0.6893 0.49238,0.9848 7.09047,-0.099 0,1.9696 1.67419,0.2955 2.26504,1.1817 5.31782,-0.099 0,-2.3635 8.76476,0 -0.0986,-1.4772 1.28026,-0.099 3.24981,0.4925 0.29548,0.9848 7.09047,0.1969 0.0986,1.3787 1.28025,-0.394 0.0986,-0.7877 1.8711,0 0.78786,0.9848 3.24981,0 0,-1.1818 2.16658,0.098 0.19691,0.9849 3.0528,-0.197 -0.0986,-8.9616 -0.59084,-2.1666 0.0986,-1.4771 4.33315,-0.394 0.39383,-0.8863 1.28026,-0.099 0,-7.6815 5.51484,-0.6893 -0.29548,-1.1818 0.59085,-0.3939 1.37882,-0.099 -4.82417,-1.274 4.87451,-0.1392 48.26513,-0.7672 0.66439,27.2753 128.06306,-2.0599 0.32804,130.50477"
     id="path3856"
     inkscape:connector-curvature="0"
     sodipodi:nodetypes="ccccccccccccccccccccccccccccccccccccccccccccccccccccccccccccccccccccccccccccccccccccccccccccccccccccccccccccccccccccccccccccccccccccccccccccccccccccccccccccccccccccccccccccccccccccccccccccccccccccccccccccccccccccccccccccscccccccccccccccccccccccccccccccccccccccccccccccccccccccccccccccccccccccccccccccccccccccccccccccccccccccccccccccccccccccccccccccccccccccccccccccccccccccccccccccccccccccccccccccccccccccccccccccccccccccccccccccccccccccccccccccccccccccccccccccccccccccccccsccccccccccccccccccccccccccccccccccccccccccccccccccccccccccccccccccccccccccccccccccccccccccccccccccccccccccccccccccccccccccccccccccccccccccccccccccccccccccccccccccccccccccccccccccccccccccccccccccccccccccccccccccscccccccccccccccccccccccccccccccccccccccccccccccccccccccccccccccccccccccccccccccccccccccccccccccccccccccccccccccccccccccccccccccccccccc" /></g><flowRoot
   xml:space="preserve"
   id="flowRoot4187"
   style="font-style:normal;font-weight:normal;font-size:40px;line-height:125%;font-family:Sans;letter-spacing:0px;word-spacing:0px;fill:#000000;fill-opacity:1;stroke:none;stroke-width:1px;stroke-linecap:butt;stroke-linejoin:miter;stroke-opacity:1"
   transform="matrix(1.2505363,0,0,1.2505363,-8.2684474,10.79444)"><flowRegion
     id="flowRegion4189"><rect
       id="rect4191"
       width="199.47952"
       height="42.745609"
       x="389.73938"
       y="-1084.9768" /></flowRegion><flowPara
     id="flowPara4193" /></flowRoot><flowRoot
   xml:space="preserve"
   id="flowRoot4195"
   style="font-style:normal;font-weight:normal;font-size:28.38975716px;line-height:125%;font-family:Sans;letter-spacing:0px;word-spacing:0px;fill:#000000;fill-opacity:1;stroke:none"
   inkscape:export-filename="C:\Users\admin\projects\golang-warsaw\golang-warsaw.png"
   inkscape:export-xdpi="90"
   inkscape:export-ydpi="90"
   transform="matrix(3.5497768,0,0,3.5497768,-1202.1558,3953.6619)"><flowRegion
     id="flowRegion4197"><rect
       id="rect4199"
       width="251.43713"
       height="53.91666"
       x="383.42804"
       y="-1065.4042" /></flowRegion><flowPara
     style="font-style:normal;font-variant:normal;font-weight:bold;font-stretch:normal;font-size:28.38975716px;font-family:'DejaVu Sans';-inkscape-font-specification:'DejaVu Sans Bold';fill:#ffffff;fill-opacity:1"
     id="flowPara3456">Golang Warsaw</flowPara></flowRoot></svg>